<svg width="32" height="32" viewBox="0 0 32 32" fill="none" xmlns="http://www.w3.org/2000/svg">
<path opacity="0.8" d="M5.17325 6.23988H19.6431V8.20901H5.17325L5.30214 6.79693L5.17325 6.23988ZM5.17307 11.3962H16.5292V13.3653H5.17307V11.3962ZM5.17259 17.5764H10.3344V19.5455H5.17259L5.30218 18.9367L5.17259 17.5764ZM12.1918 29.8956H1.99375V1.98858H24.9468L24.9465 9.96057C25.5046 9.96057 26.301 10.099 26.8535 10.099V1.10675C26.8535 0.553395 26.301 0 25.7484 0H1.11629C0.558074 0 0 0.553395 0 1.10675V30.8362C0 31.3985 0.554152 31.9605 1.10838 31.9605H13.4376C12.8836 31.2578 12.8189 30.4489 12.4003 29.8956L12.1918 29.8956ZM19.6499 20.9844C19.7533 21.1145 19.8628 21.2408 19.9686 21.363C20.0579 21.4661 20.1504 21.5728 20.2369 21.6792C20.5176 22.0244 20.5149 22.2527 20.226 22.5838C20.1564 22.6636 20.0802 22.7385 19.9995 22.8178C19.9239 22.8922 19.8457 22.9692 19.7719 23.0516C19.7435 23.0836 19.7145 23.1152 19.6856 23.147C19.5482 23.2978 19.4061 23.4536 19.2989 23.6376C18.9834 24.1792 18.9802 24.7517 19.2896 25.2936C19.5794 25.8008 20.0623 26.069 20.686 26.069H20.6868C21.1728 26.0688 21.6587 26.0687 22.1447 26.0687L24.1548 26.0688L24.3413 26.068C24.5552 26.068 24.7693 26.0682 24.9832 26.0683C25.2595 26.0685 25.5358 26.0686 25.8122 26.0686C26.5524 26.0686 27.1175 26.0675 27.6446 26.0651C27.8241 26.0643 28.0012 26.0385 28.1569 25.9903C28.6424 25.8404 29.0125 25.4747 29.1724 24.987C29.3381 24.4817 29.2438 23.9203 28.9202 23.4853C28.7648 23.2764 28.5812 23.0919 28.4036 22.9135C28.3324 22.842 28.2588 22.7681 28.1893 22.6948C27.7735 22.2557 27.7688 22.0363 28.1658 21.5768C28.4249 21.2768 28.6764 20.9812 28.9068 20.6629C29.8911 19.3031 30.2329 17.8235 29.9224 16.2651C29.6977 15.1374 29.2489 14.1816 28.5883 13.424C27.9186 12.6559 27.0285 12.0888 25.9428 11.7384C25.2968 11.53 24.6567 11.4243 24.0402 11.4243C22.6053 11.4243 21.2813 11.9846 20.105 13.0896C18.7644 14.3489 18.166 15.9614 18.3266 17.8823C18.4172 18.9639 18.85 19.9786 19.6499 20.9844ZM21.2934 14.4882C21.7183 14.0891 22.169 13.7867 22.6327 13.5893C23.085 13.3967 23.5629 13.2991 24.0533 13.2991C24.4886 13.2991 24.9465 13.3756 25.4142 13.5265C26.1911 13.7773 26.8206 14.1746 27.2854 14.7078C27.7479 15.2379 28.0649 15.9213 28.2279 16.739C28.3367 17.2856 28.3303 17.8212 28.2089 18.3311C28.0892 18.8346 27.8534 19.3319 27.508 19.8092C27.3265 20.0599 27.1182 20.3044 26.9029 20.5535C26.1698 21.4023 26.1885 22.245 26.9585 23.058C27.0291 23.1327 27.0989 23.2029 27.1664 23.2708L27.1708 23.2751C27.3076 23.4125 27.4369 23.5423 27.5285 23.6655C27.6344 23.8078 27.6062 23.9441 27.5891 23.9961C27.5686 24.0587 27.5215 24.1404 27.4143 24.1736C27.3795 24.1842 27.3312 24.1903 27.2815 24.1905C26.664 24.1934 26.0506 24.1937 25.6429 24.1937L24.9 24.1935C24.6519 24.1933 24.404 24.1933 24.1559 24.1933L23.4132 24.1939H22.3529C21.9169 24.1939 21.4808 24.1939 21.0444 24.1941C20.8422 24.1941 20.8079 24.134 20.7682 24.0646C20.6894 23.9265 20.6902 23.8373 20.7716 23.6975C20.808 23.6351 20.8944 23.5403 20.9782 23.4486L20.9826 23.4437C21.0096 23.4139 21.0366 23.3841 21.0638 23.354C21.106 23.3065 21.1626 23.2509 21.2174 23.1972C21.2935 23.1225 21.3881 23.0295 21.4795 22.9247C22.0936 22.2207 22.1063 21.3993 21.5142 20.6712C21.4273 20.5641 21.3403 20.4636 21.2561 20.3664L21.2511 20.3606C21.1643 20.2606 21.0745 20.1571 20.9952 20.0573C20.4198 19.3337 20.1099 18.6209 20.0477 17.878C19.9909 17.1978 20.0647 16.5702 20.2671 16.0126C20.4722 15.448 20.8175 14.9352 21.2934 14.4882ZM15.3762 30.0309H32V32H15.3762V30.0309ZM19.4622 26.9597H28.4269V28.9288H19.4622V26.9597Z" fill="#293948"/>
</svg>
