<svg width="25" height="18" viewBox="0 0 25 18" fill="none" xmlns="http://www.w3.org/2000/svg">
<g opacity="0.9">
<path d="M6.71442 5.57129L12.4288 9.57139L18.1433 5.57129" stroke="white" stroke-width="1.5" stroke-linecap="round" stroke-linejoin="round"/>
<path d="M1 14.7146V3.28577C1 2.67955 1.24082 2.09815 1.66949 1.66949C2.09815 1.24082 2.67955 1 3.28577 1H21.5719C22.1782 1 22.7595 1.24082 23.1882 1.66949C23.6169 2.09815 23.8577 2.67955 23.8577 3.28577V14.7146C23.8577 15.3208 23.6169 15.9022 23.1882 16.3309C22.7595 16.7596 22.1782 17.0004 21.5719 17.0004H3.28577C2.67955 17.0004 2.09815 16.7596 1.66949 16.3309C1.24082 15.9022 1 15.3208 1 14.7146Z" stroke="white" stroke-width="1.5"/>
</g>
</svg>
