<svg width="40" height="36" viewBox="0 0 40 36" fill="none" xmlns="http://www.w3.org/2000/svg">
<g opacity="0.8">
<path d="M12.4339 15.3705H12.1839H1.44697C1.16164 15.3705 0.905078 15.1965 0.799476 14.9313L0.799371 14.931C0.694425 14.6666 0.760037 14.3639 0.967226 14.1675C0.990184 14.1456 1.84603 13.326 2.83997 12.0949C3.8429 10.8527 4.97122 9.20996 5.53711 7.55593L12.4339 15.3705ZM12.4339 15.3705V15.3239M12.4339 15.3705V15.3239M12.4339 15.3239C12.5241 15.2892 12.6069 15.2358 12.6766 15.1663L12.6768 15.1661L19.5676 8.27506C19.5677 8.27496 19.5678 8.27487 19.5679 8.27477C19.7683 8.0755 19.8276 7.77487 19.7196 7.51461L19.7195 7.51435C19.6113 7.25437 19.3576 7.08451 19.0753 7.08451L6.19672 7.08429C5.89864 7.08429 5.63366 7.27367 5.53712 7.5559L12.4339 15.3239ZM1.44697 15.1205C1.26406 15.1205 1.09949 15.009 1.03174 14.8388L12.1839 15.1205H11.9339H1.44697ZM11.895 13.9761H3.07798C4.17829 12.7443 5.80599 10.692 6.68241 8.47892H17.3922L11.895 13.9761Z" fill="#293948" stroke="#293948" stroke-width="0.5"/>
<path d="M24.917 6.01156L24.9171 6.01144C25.1827 5.7462 25.6374 5.74637 25.9031 6.01132L25.9033 6.01156L36.6554 16.7637C36.7862 16.8944 36.8597 17.0721 36.8597 17.2568V17.257L36.8501 34.4578V34.4581C36.8494 34.8429 36.5371 35.1544 36.1524 35.1544H36.1522H14.5469C14.3618 35.1544 14.1843 35.0808 14.0535 34.9497C13.9229 34.819 13.8494 34.6414 13.8497 34.4564L13.8497 34.4566L24.917 6.01156ZM24.917 6.01156L14.4097 16.5186C14.3689 16.5273 14.3287 16.5399 14.2896 16.5562M24.917 6.01156L13.8593 17.1999C13.8594 16.9179 14.0296 16.6641 14.2896 16.5562M14.2896 16.5562L14.3855 16.7871L14.2892 16.5564C14.2893 16.5563 14.2895 16.5562 14.2896 16.5562ZM13.8593 17.2001L13.8497 34.4563L13.8593 17.2001ZM35.4646 17.5446L35.4554 33.7595H15.2445L15.2537 17.6469L25.4102 7.49019L35.4646 17.5446Z" fill="#293948" stroke="#293948" stroke-width="0.5"/>
<path d="M14.5572 35.1544H15.1571L14.9998 34.9957C15.1552 34.8678 15.2542 34.6739 15.2542 34.4567V17.2007C15.2542 17.015 15.1798 16.837 15.0483 16.7062L15.0483 16.7062L15.0474 16.7053C14.9308 16.5905 14.7486 16.4876 14.5411 16.5041L13.2981 16.5143H13.2971H3.24026C2.85534 16.5143 2.54306 16.8265 2.54306 17.2115V34.4572C2.54306 34.8418 2.85525 35.1544 3.24026 35.1544H14.5572ZM3.93747 33.7595V17.9087L13.3021 17.9087L13.3042 17.9087L13.8602 17.904V33.7595H3.93747Z" fill="#293948" stroke="#293948" stroke-width="0.5"/>
<path d="M12.8286 14.407L12.8285 14.4069C12.7206 14.1464 12.4665 13.9762 12.1841 13.9762H1.4472C1.06228 13.9762 0.75 14.2885 0.75 14.6734V17.2115C0.75 17.5964 1.06228 17.9087 1.4472 17.9087H14.5086L14.5091 17.9089H14.5679C14.8506 17.9089 15.1038 17.7385 15.2119 17.4789L15.2123 17.4781C15.3196 17.2178 15.26 16.9182 15.0607 16.7188L12.865 14.5231C12.8565 14.4843 12.8445 14.4454 12.8286 14.407ZM2.14441 16.5143V15.3706H11.7405L12.8842 16.5143H2.14441Z" fill="#293948" stroke="#293948" stroke-width="0.5"/>
<path d="M6.70117 24.9246H11.0967C11.482 24.9246 11.7939 24.6116 11.7939 24.227V19.8318C11.7939 19.4472 11.4817 19.1346 11.0967 19.1346H6.70117C6.31624 19.1346 6.00397 19.4469 6.00397 19.8318V24.2274C6.00397 24.612 6.31616 24.9246 6.70117 24.9246ZM10.3995 20.5293V23.53H7.39837V20.5293H10.3995Z" fill="#293948" stroke="#293948" stroke-width="0.5"/>
<path d="M6.70117 32.5241H11.0967C11.482 32.5241 11.7939 32.2111 11.7939 31.8265V27.4309C11.7939 27.0463 11.4817 26.7337 11.0967 26.7337H6.70117C6.31624 26.7337 6.00397 27.046 6.00397 27.4309V31.8269C6.00397 32.2115 6.31616 32.5241 6.70117 32.5241ZM10.3995 28.1281V31.1293H7.39837V28.1281H10.3995Z" fill="#293948" stroke="#293948" stroke-width="0.5"/>
<path d="M22.209 13.5971C22.209 15.3943 23.6706 16.8561 25.4681 16.8561C27.2655 16.8561 28.7273 15.3943 28.7273 13.5971C28.7273 11.8001 27.265 10.3383 25.4681 10.3383C23.6709 10.3383 22.209 11.8001 22.209 13.5971ZM23.6035 13.5971C23.6035 12.5691 24.4401 11.7323 25.4681 11.7323C26.4961 11.7323 27.3329 12.5691 27.3329 13.5971C27.3329 14.6251 26.4961 15.4619 25.4681 15.4619C24.4399 15.4619 23.6035 14.6252 23.6035 13.5971Z" fill="#293948" stroke="#293948" stroke-width="0.5"/>
<path d="M20.6658 35.1545H30.0434L30.4902 34.4572H30.7402V34.4568V22.2021C30.7402 21.8175 30.428 21.5049 30.043 21.5049H20.6658C20.2811 21.5049 19.9686 21.8171 19.9686 22.2021V34.4572C19.9686 34.8419 20.2808 35.1545 20.6658 35.1545ZM29.3458 22.8991V33.7596H21.3634V22.8991H29.3458Z" fill="#293948" stroke="#293948" stroke-width="0.5"/>
<path d="M25.4104 7.49041L15.1282 17.7726C14.8629 18.0379 14.4076 18.0379 14.1423 17.7726L11.6135 15.244C11.6134 15.244 11.6134 15.2439 11.6134 15.2439C11.3409 14.9716 11.3409 14.5303 11.6134 14.258C11.6134 14.258 11.6134 14.2579 11.6135 14.2579L24.917 0.954366C25.1894 0.681955 25.631 0.681709 25.9033 0.954367C25.9034 0.954381 25.9034 0.954465 25.9035 0.954479L39.2065 14.2578L25.4104 7.49041ZM25.4104 7.49041L35.6921 17.7722L35.6924 17.7724C35.7621 17.8419 35.845 17.8954 35.9353 17.93V17.9769H36.1853C36.3699 17.9769 36.5474 17.9037 36.6783 17.7728L36.6783 17.7728L39.2066 15.244L39.2068 15.2439L39.03 15.0671C39.2048 14.8925 39.2048 14.6092 39.03 14.4348L39.2068 14.258L25.4104 7.49041ZM13.0925 14.7506L25.4102 2.43321L37.7277 14.751L36.1853 16.2935L25.9035 6.01168C25.9034 6.01164 25.9034 6.0116 25.9033 6.01157C25.631 5.73898 25.1894 5.73918 24.917 6.01157L14.6352 16.2933L13.0925 14.7506Z" fill="#293948" stroke="#293948" stroke-width="0.5"/>
<path d="M24.6575 34.4572C24.6575 34.8419 24.9697 35.1545 25.3547 35.1545C25.7396 35.1545 26.0519 34.8422 26.0519 34.4572V22.2021C26.0519 21.8174 25.7394 21.5049 25.3547 21.5049C24.9701 21.5049 24.6575 21.8171 24.6575 22.2021V34.4572Z" fill="#293948" stroke="#293948" stroke-width="0.5"/>
<path d="M26.0575 28.9819C26.0575 29.3665 26.3697 29.6791 26.7547 29.6791C27.1397 29.6791 27.4519 29.3665 27.4519 28.9819V27.6783C27.4519 27.2936 27.1394 26.9811 26.7547 26.9811C26.37 26.9811 26.0575 27.2933 26.0575 27.6783V28.9819Z" fill="#293948" stroke="#293948" stroke-width="0.5"/>
<path d="M23.2575 28.9819C23.2575 29.3665 23.5697 29.6791 23.9547 29.6791C24.3397 29.6791 24.6519 29.3665 24.6519 28.9819V27.6783C24.6519 27.2936 24.3394 26.9811 23.9547 26.9811C23.5701 26.9811 23.2575 27.2933 23.2575 27.6783V28.9819Z" fill="#293948" stroke="#293948" stroke-width="0.5"/>
</g>
</svg>
