<svg width="188" height="64" viewBox="0 0 188 64" fill="none" xmlns="http://www.w3.org/2000/svg">
<g opacity="0.9">
<rect x="64.5466" y="43.2402" width="49.5067" height="3.13333" transform="rotate(-180 64.5466 43.2402)" fill="white"/>
<rect x="172.96" y="43.2402" width="49.5067" height="3.13333" transform="rotate(-180 172.96 43.2402)" fill="white"/>
<path fill-rule="evenodd" clip-rule="evenodd" d="M111.86 0H76.0532L76.9031 1.58966L80.5576 10.2587V10.2674H83.8975L83.8975 37.425H86.4042L86.4042 10.2674H90.0413L90.0413 37.425H92.548L92.548 10.2674H96.1851L96.1851 37.425H98.6918L98.6918 10.2674H102.329L102.329 37.425H104.836L104.836 10.2674H107.278V10.2486L107.321 10.2669L110.881 1.82313L111.86 0ZM82.2249 7.76074H105.657L107.872 2.50667H80.01L82.2249 7.76074ZM81.3813 43.3709L106.353 43.3709V40.8643H81.3813V43.3709Z" fill="white"/>
<path d="M3.86279 52.8254C4.66397 52.8254 5.34115 52.9871 5.89434 53.3105C6.45389 53.6339 6.87673 54.093 7.16286 54.6876C7.44899 55.2771 7.59206 55.976 7.59206 56.7846V57.9582H2.49889C2.51161 58.725 2.68329 59.291 3.01393 59.6561C3.34458 60.0161 3.85008 60.196 4.53044 60.196C4.98189 60.196 5.40791 60.1491 5.8085 60.0552C6.21544 59.9561 6.64782 59.7892 7.10563 59.5544V61.2914C6.67961 61.5001 6.22498 61.6514 5.74173 61.7453C5.25849 61.8444 4.73709 61.8939 4.17754 61.8939C3.19833 61.8939 2.40034 61.714 1.78356 61.354C1.16679 60.9889 0.715332 60.4725 0.429199 59.8048C0.143066 59.1319 0 58.3338 0 57.4105C0 56.4246 0.143066 55.5926 0.429199 54.9145C0.721691 54.2312 1.15407 53.7122 1.72634 53.3575C2.2986 53.0028 3.01075 52.8254 3.86279 52.8254ZM3.92002 54.4607C3.50036 54.4607 3.16654 54.6172 2.91856 54.9302C2.67057 55.2379 2.53705 55.7439 2.51797 56.4481H5.23623C5.23623 56.036 5.18536 55.6813 5.08363 55.384C4.98189 55.0867 4.83247 54.8598 4.63535 54.7033C4.43824 54.5416 4.1998 54.4607 3.92002 54.4607Z" fill="white"/>
<path d="M9.3512 58.4355V56.4325H14.2155V58.4355H9.3512Z" fill="white"/>
<path d="M22.8799 61.7374H16.6136V50.2981H22.8799V52.1681H19.2938V54.8598H22.632V56.7376H19.2938V59.8283H22.8799V61.7374Z" fill="white"/>
<path d="M31.0675 59.171C31.0675 59.7657 30.9308 60.2664 30.6574 60.6733C30.3904 61.075 29.9993 61.3801 29.4843 61.5888C28.9756 61.7922 28.362 61.8939 27.6435 61.8939C27.1285 61.8939 26.6357 61.8522 26.1651 61.7687C25.701 61.6905 25.2622 61.5679 24.8489 61.401V59.3823C25.1923 59.5753 25.5897 59.7422 26.0411 59.883C26.4926 60.0187 26.9504 60.0865 27.4146 60.0865C27.7707 60.0865 28.0441 60.0187 28.2348 59.883C28.4256 59.7474 28.521 59.5492 28.521 59.2884C28.521 59.1423 28.4828 59.0067 28.4065 58.8815C28.3302 58.7511 28.1776 58.6155 27.9487 58.4746C27.7198 58.3286 27.3764 58.1617 26.9186 57.9739C26.4799 57.7757 26.1047 57.5488 25.7932 57.2932C25.4816 57.0376 25.2432 56.7454 25.0778 56.4168C24.9125 56.0882 24.8298 55.7152 24.8298 55.2979C24.8298 54.5259 25.1223 53.9182 25.7073 53.4748C26.2923 53.0314 27.0935 52.8097 28.1108 52.8097C28.6322 52.8097 29.1218 52.8697 29.5797 52.9897C30.0438 53.1045 30.4985 53.274 30.9436 53.4983L30.2473 55.1023C29.9421 54.9354 29.621 54.7945 29.284 54.6798C28.947 54.565 28.6036 54.5077 28.2539 54.5077C27.9423 54.5077 27.7039 54.5702 27.5386 54.6954C27.3733 54.8154 27.2906 54.9823 27.2906 55.1962C27.2906 55.3475 27.3287 55.4779 27.405 55.5874C27.4813 55.697 27.6308 55.8196 27.8533 55.9552C28.0822 56.0856 28.416 56.2603 28.8548 56.4794C29.2935 56.6881 29.6782 56.915 30.0089 57.1601C30.3395 57.4053 30.597 57.6896 30.7814 58.013C30.9722 58.3364 31.0675 58.7224 31.0675 59.171Z" fill="white"/>
<path d="M36.8421 60.0708C37.0201 60.0708 37.2077 60.0526 37.4048 60.0161C37.6083 59.9743 37.8181 59.9117 38.0343 59.8283V61.4949C37.7545 61.6253 37.4461 61.7244 37.1091 61.7922C36.7785 61.86 36.4256 61.8939 36.0505 61.8939C35.44 61.8939 34.9409 61.7948 34.553 61.5966C34.1715 61.3932 33.8917 61.088 33.7137 60.6811C33.5357 60.269 33.4466 59.75 33.4466 59.1241V54.7033H32.3975V53.5844L33.6469 53.0367L34.2478 51.1275H35.9837V52.9741H37.9008V54.7033H35.9837V59.0458C35.9837 59.3901 36.0473 59.6483 36.1744 59.8204C36.308 59.9874 36.5305 60.0708 36.8421 60.0708Z" fill="white"/>
<path d="M43.7707 52.8097C44.8071 52.8097 45.5956 53.0732 46.1361 53.6C46.6829 54.1216 46.9563 54.9015 46.9563 55.9395V61.7374H45.0965L44.6863 60.5638H44.6291C44.4129 60.8611 44.1808 61.1089 43.9328 61.3071C43.6912 61.5053 43.4146 61.6514 43.1031 61.7453C42.7915 61.8444 42.4259 61.8939 42.0062 61.8939C41.4149 61.8939 40.9348 61.7635 40.566 61.5027C40.2036 61.2419 39.9397 60.9028 39.7744 60.4855C39.6091 60.0682 39.5264 59.6248 39.5264 59.1554C39.5264 58.2425 39.8348 57.5514 40.4516 57.0819C41.0683 56.6124 41.9458 56.3594 43.084 56.3229L44.4097 56.276V55.9239C44.4097 55.444 44.3175 55.0867 44.1331 54.8519C43.9551 54.612 43.6594 54.492 43.2461 54.492C42.9409 54.492 42.6071 54.5416 42.2447 54.6407C41.8822 54.7398 41.4848 54.8937 41.0524 55.1023L40.3466 53.5452C40.8299 53.3053 41.3608 53.1227 41.9395 52.9975C42.5181 52.8723 43.1285 52.8097 43.7707 52.8097ZM44.4097 57.6687L43.6944 57.7C43.1539 57.7209 42.7502 57.8461 42.4831 58.0756C42.2224 58.2999 42.0921 58.6285 42.0921 59.0615C42.0921 59.4527 42.1715 59.7448 42.3305 59.9378C42.4958 60.1308 42.7343 60.2273 43.0458 60.2273C43.4464 60.2273 43.7739 60.0682 44.0282 59.75C44.2826 59.4318 44.4097 59.0041 44.4097 58.4668V57.6687Z" fill="white"/>
<path d="M53.2745 60.0708C53.4525 60.0708 53.6401 60.0526 53.8372 60.0161C54.0407 59.9743 54.2505 59.9117 54.4667 59.8283V61.4949C54.187 61.6253 53.8786 61.7244 53.5416 61.7922C53.2109 61.86 52.858 61.8939 52.4829 61.8939C51.8725 61.8939 51.3733 61.7948 50.9854 61.5966C50.6039 61.3932 50.3242 61.088 50.1461 60.6811C49.9681 60.269 49.8791 59.75 49.8791 59.1241V54.7033H48.8299V53.5844L50.0794 53.0367L50.6802 51.1275H52.4161V52.9741H54.3332V54.7033H52.4161V59.0458C52.4161 59.3901 52.4797 59.6483 52.6069 59.8204C52.7404 59.9874 52.9629 60.0708 53.2745 60.0708Z" fill="white"/>
<path d="M59.9647 52.8254C60.7659 52.8254 61.443 52.9871 61.9962 53.3105C62.5558 53.6339 62.9786 54.093 63.2647 54.6876C63.5509 55.2771 63.6939 55.976 63.6939 56.7846V57.9582H58.6008C58.6135 58.725 58.7852 59.291 59.1158 59.6561C59.4465 60.0161 59.952 60.196 60.6323 60.196C61.0838 60.196 61.5098 60.1491 61.9104 60.0552C62.3173 59.9561 62.7497 59.7892 63.2075 59.5544V61.2914C62.7815 61.5001 62.3269 61.6514 61.8436 61.7453C61.3604 61.8444 60.839 61.8939 60.2794 61.8939C59.3002 61.8939 58.5022 61.714 57.8854 61.354C57.2687 60.9889 56.8172 60.4725 56.5311 59.8048C56.245 59.1319 56.1019 58.3338 56.1019 57.4105C56.1019 56.4246 56.245 55.5926 56.5311 54.9145C56.8236 54.2312 57.256 53.7122 57.8282 53.3575C58.4005 53.0028 59.1126 52.8254 59.9647 52.8254ZM60.0219 54.4607C59.6022 54.4607 59.2684 54.6172 59.0204 54.9302C58.7725 55.2379 58.6389 55.7439 58.6199 56.4481H61.3381C61.3381 56.036 61.2873 55.6813 61.1855 55.384C61.0838 55.0867 60.9344 54.8598 60.7372 54.7033C60.5401 54.5416 60.3017 54.4607 60.0219 54.4607Z" fill="white"/>
<path d="M71.6908 59.171C71.6908 59.7657 71.5541 60.2664 71.2807 60.6733C71.0136 61.075 70.6226 61.3801 70.1075 61.5888C69.5988 61.7922 68.9852 61.8939 68.2667 61.8939C67.7517 61.8939 67.2589 61.8522 66.7884 61.7687C66.3242 61.6905 65.8855 61.5679 65.4722 61.401V59.3823C65.8155 59.5753 66.2129 59.7422 66.6644 59.883C67.1158 60.0187 67.5737 60.0865 68.0378 60.0865C68.3939 60.0865 68.6673 60.0187 68.8581 59.883C69.0488 59.7474 69.1442 59.5492 69.1442 59.2884C69.1442 59.1423 69.1061 59.0067 69.0298 58.8815C68.9535 58.7511 68.8008 58.6155 68.5719 58.4746C68.343 58.3286 67.9997 58.1617 67.5419 57.9739C67.1031 57.7757 66.728 57.5488 66.4164 57.2932C66.1048 57.0376 65.8664 56.7454 65.7011 56.4168C65.5358 56.0882 65.4531 55.7152 65.4531 55.2979C65.4531 54.5259 65.7456 53.9182 66.3306 53.4748C66.9156 53.0314 67.7167 52.8097 68.7341 52.8097C69.2555 52.8097 69.7451 52.8697 70.2029 52.9897C70.6671 53.1045 71.1217 53.274 71.5668 53.4983L70.8705 55.1023C70.5653 54.9354 70.2442 54.7945 69.9072 54.6798C69.5702 54.565 69.2269 54.5077 68.8772 54.5077C68.5656 54.5077 68.3271 54.5702 68.1618 54.6954C67.9965 54.8154 67.9138 54.9823 67.9138 55.1962C67.9138 55.3475 67.952 55.4779 68.0283 55.5874C68.1046 55.697 68.254 55.8196 68.4766 55.9552C68.7055 56.0856 69.0393 56.2603 69.478 56.4794C69.9168 56.6881 70.3015 56.915 70.6321 57.1601C70.9627 57.4053 71.2203 57.6896 71.4047 58.013C71.5954 58.3364 71.6908 58.7224 71.6908 59.171Z" fill="white"/>
<path d="M81.7424 50.1494C82.4165 50.1494 82.9855 50.2538 83.4497 50.4624C83.9139 50.6711 84.2668 50.9684 84.5084 51.3544C84.75 51.7404 84.8708 52.2047 84.8708 52.7472C84.8708 53.347 84.6992 53.8895 84.3558 54.3746C84.0188 54.8598 83.5387 55.3057 82.9156 55.7126L84.4798 57.6061C84.6133 57.361 84.7246 57.0793 84.8136 56.7611C84.909 56.4429 84.9853 56.0882 85.0425 55.697H87.7226C87.6209 56.3229 87.4397 56.9645 87.179 57.6218C86.9246 58.2738 86.5908 58.8763 86.1775 59.4292L88.2663 61.7374H85.0425L84.3558 60.8689C84.0442 61.088 83.7168 61.2732 83.3734 61.4245C83.0364 61.5757 82.6708 61.6905 82.2766 61.7687C81.8823 61.8522 81.4436 61.8939 80.9604 61.8939C80.1655 61.8939 79.5011 61.7609 78.967 61.4949C78.4392 61.2236 78.0418 60.8481 77.7747 60.3682C77.514 59.883 77.3837 59.3197 77.3837 58.6781C77.3837 58.219 77.4663 57.7991 77.6317 57.4183C77.797 57.0323 78.0481 56.6776 78.3852 56.3542C78.7222 56.0308 79.1514 55.7361 79.6728 55.4701C79.4121 55.1727 79.1959 54.8832 79.0242 54.6015C78.8525 54.3199 78.7253 54.0278 78.6427 53.7252C78.56 53.4174 78.5187 53.0862 78.5187 52.7315C78.5187 52.2099 78.6522 51.7561 78.9193 51.3701C79.1863 50.984 79.5615 50.6841 80.0447 50.4702C80.528 50.2564 81.0939 50.1494 81.7424 50.1494ZM80.884 56.7846C80.6742 56.9411 80.5057 57.108 80.3785 57.2853C80.2514 57.4575 80.156 57.6479 80.0924 57.8565C80.0352 58.0599 80.0066 58.2895 80.0066 58.5451C80.0066 58.9624 80.1274 59.3145 80.369 59.6014C80.6106 59.883 80.9445 60.0239 81.3705 60.0239C81.7075 60.0239 82 59.9639 82.2479 59.8439C82.4959 59.7239 82.7376 59.5492 82.9728 59.3197L80.884 56.7846ZM81.7234 51.7065C81.4881 51.7065 81.2942 51.7926 81.1416 51.9647C80.9953 52.1316 80.9222 52.3872 80.9222 52.7315C80.9222 52.9871 80.9826 53.2636 81.1034 53.5609C81.2306 53.8582 81.4118 54.1373 81.6471 54.3981C81.9459 54.1842 82.1653 53.926 82.3052 53.6235C82.4514 53.3157 82.5245 52.9975 82.5245 52.6689C82.5245 52.3455 82.4514 52.1055 82.3052 51.9491C82.1589 51.7874 81.965 51.7065 81.7234 51.7065Z" fill="white"/>
<path d="M98.3847 61.7374H95.7427V52.1994H93.1485V50.2981H100.96V52.1994H98.3847V61.7374Z" fill="white"/>
<path d="M107.593 52.8097C107.733 52.8097 107.869 52.8202 108.003 52.841C108.136 52.8567 108.292 52.8854 108.47 52.9271L108.241 55.1493C108.114 55.1075 107.974 55.0788 107.822 55.0632C107.675 55.0475 107.513 55.0397 107.335 55.0397C107.043 55.0397 106.782 55.0919 106.553 55.1962C106.324 55.3005 106.13 55.4518 105.971 55.65C105.819 55.843 105.701 56.0778 105.619 56.3542C105.542 56.6255 105.504 56.9306 105.504 57.2697V61.7374H102.967V52.9741H104.922L105.285 54.4138H105.409C105.549 54.1373 105.723 53.8765 105.933 53.6313C106.143 53.3861 106.388 53.1879 106.668 53.0367C106.947 52.8854 107.256 52.8097 107.593 52.8097Z" fill="white"/>
<path d="M117.917 52.9741V61.7374H115.924L115.637 60.6185H115.494C115.335 60.9002 115.141 61.135 114.912 61.3227C114.684 61.5105 114.42 61.6514 114.121 61.7453C113.828 61.8444 113.501 61.8939 113.138 61.8939C112.509 61.8939 111.984 61.7661 111.565 61.5105C111.145 61.2549 110.83 60.8898 110.621 60.4151C110.411 59.9352 110.306 59.3614 110.306 58.6937V52.9741H112.843V58.0678C112.843 58.725 112.922 59.218 113.081 59.5466C113.24 59.8752 113.498 60.0395 113.854 60.0395C114.28 60.0395 114.601 59.9378 114.817 59.7344C115.033 59.5309 115.18 59.2336 115.256 58.8424C115.339 58.4512 115.38 57.9791 115.38 57.4262V52.9741H117.917Z" fill="white"/>
<path d="M126.381 59.171C126.381 59.7657 126.244 60.2664 125.971 60.6733C125.704 61.075 125.313 61.3801 124.798 61.5888C124.289 61.7922 123.676 61.8939 122.957 61.8939C122.442 61.8939 121.949 61.8522 121.479 61.7687C121.015 61.6905 120.576 61.5679 120.162 61.401V59.3823C120.506 59.5753 120.903 59.7422 121.355 59.883C121.806 60.0187 122.264 60.0865 122.728 60.0865C123.084 60.0865 123.358 60.0187 123.548 59.883C123.739 59.7474 123.835 59.5492 123.835 59.2884C123.835 59.1423 123.796 59.0067 123.72 58.8815C123.644 58.7511 123.491 58.6155 123.262 58.4746C123.033 58.3286 122.69 58.1617 122.232 57.9739C121.793 57.7757 121.418 57.5488 121.107 57.2932C120.795 57.0376 120.557 56.7454 120.391 56.4168C120.226 56.0882 120.143 55.7152 120.143 55.2979C120.143 54.5259 120.436 53.9182 121.021 53.4748C121.606 53.0314 122.407 52.8097 123.424 52.8097C123.946 52.8097 124.435 52.8697 124.893 52.9897C125.357 53.1045 125.812 53.274 126.257 53.4983L125.561 55.1023C125.256 54.9354 124.935 54.7945 124.598 54.6798C124.261 54.565 123.917 54.5077 123.567 54.5077C123.256 54.5077 123.017 54.5702 122.852 54.6954C122.687 54.8154 122.604 54.9823 122.604 55.1962C122.604 55.3475 122.642 55.4779 122.719 55.5874C122.795 55.697 122.944 55.8196 123.167 55.9552C123.396 56.0856 123.73 56.2603 124.168 56.4794C124.607 56.6881 124.992 56.915 125.322 57.1601C125.653 57.4053 125.911 57.6896 126.095 58.013C126.286 58.3364 126.381 58.7224 126.381 59.171Z" fill="white"/>
<path d="M132.156 60.0708C132.334 60.0708 132.521 60.0526 132.718 60.0161C132.922 59.9743 133.132 59.9117 133.348 59.8283V61.4949C133.068 61.6253 132.76 61.7244 132.423 61.7922C132.092 61.86 131.739 61.8939 131.364 61.8939C130.754 61.8939 130.254 61.7948 129.867 61.5966C129.485 61.3932 129.205 61.088 129.027 60.6811C128.849 60.269 128.76 59.75 128.76 59.1241V54.7033H127.711V53.5844L128.96 53.0367L129.561 51.1275H131.297V52.9741H133.214V54.7033H131.297V59.0458C131.297 59.3901 131.361 59.6483 131.488 59.8204C131.622 59.9874 131.844 60.0708 132.156 60.0708Z" fill="white"/>
<path d="M141.059 59.171C141.059 59.7657 140.922 60.2664 140.648 60.6733C140.381 61.075 139.99 61.3801 139.475 61.5888C138.967 61.7922 138.353 61.8939 137.635 61.8939C137.119 61.8939 136.627 61.8522 136.156 61.7687C135.692 61.6905 135.253 61.5679 134.84 61.401V59.3823C135.183 59.5753 135.581 59.7422 136.032 59.883C136.484 60.0187 136.941 60.0865 137.406 60.0865C137.762 60.0865 138.035 60.0187 138.226 59.883C138.417 59.7474 138.512 59.5492 138.512 59.2884C138.512 59.1423 138.474 59.0067 138.398 58.8815C138.321 58.7511 138.169 58.6155 137.94 58.4746C137.711 58.3286 137.367 58.1617 136.91 57.9739C136.471 57.7757 136.096 57.5488 135.784 57.2932C135.473 57.0376 135.234 56.7454 135.069 56.4168C134.904 56.0882 134.821 55.7152 134.821 55.2979C134.821 54.5259 135.113 53.9182 135.698 53.4748C136.283 53.0314 137.084 52.8097 138.102 52.8097C138.623 52.8097 139.113 52.8697 139.571 52.9897C140.035 53.1045 140.489 53.274 140.935 53.4983L140.238 55.1023C139.933 54.9354 139.612 54.7945 139.275 54.6798C138.938 54.565 138.595 54.5077 138.245 54.5077C137.933 54.5077 137.695 54.5702 137.53 54.6954C137.364 54.8154 137.282 54.9823 137.282 55.1962C137.282 55.3475 137.32 55.4779 137.396 55.5874C137.472 55.697 137.622 55.8196 137.844 55.9552C138.073 56.0856 138.407 56.2603 138.846 56.4794C139.285 56.6881 139.669 56.915 140 57.1601C140.331 57.4053 140.588 57.6896 140.772 58.013C140.963 58.3364 141.059 58.7224 141.059 59.171Z" fill="white"/>
<path d="M146.118 59.6092L146.232 59.7813C146.124 60.3134 146 60.822 145.86 61.3071C145.727 61.787 145.58 62.2434 145.422 62.6764C145.263 63.1145 145.085 63.5292 144.887 63.9205H142.818C142.926 63.5032 143.034 63.0337 143.142 62.5121C143.25 61.9904 143.345 61.474 143.428 60.9628C143.511 60.4464 143.568 59.9952 143.6 59.6092H146.118Z" fill="white"/>
<path d="M156.618 50.2981C158.036 50.2981 159.088 50.6006 159.775 51.2057C160.468 51.8056 160.814 52.6819 160.814 53.8348C160.814 54.4138 160.725 54.9406 160.547 55.4153C160.376 55.8848 160.112 56.289 159.756 56.6281C159.4 56.9671 158.951 57.2279 158.411 57.4105C157.87 57.5931 157.231 57.6844 156.494 57.6844H155.759V61.7374H153.079V50.2981H156.618ZM156.417 52.1681H155.759V55.8065H156.227C156.653 55.8065 157.009 55.7413 157.295 55.6109C157.581 55.4805 157.797 55.2718 157.943 54.9849C158.09 54.698 158.163 54.3199 158.163 53.8504C158.163 53.2662 158.017 52.841 157.724 52.575C157.438 52.3038 157.002 52.1681 156.417 52.1681Z" fill="white"/>
<path d="M163.241 61.7374V50.2981H165.921V59.8283H169.631V61.7374H163.241Z" fill="white"/>
<path d="M171.763 61.7374V50.2981H174.443V59.8283H178.153V61.7374H171.763Z" fill="white"/>
<path d="M185.072 52.0273C184.665 52.0273 184.309 52.1264 184.004 52.3246C183.698 52.5229 183.444 52.8045 183.241 53.1697C183.044 53.5296 182.894 53.9547 182.792 54.4451C182.697 54.9354 182.649 55.4701 182.649 56.0491C182.649 56.8993 182.748 57.6192 182.945 58.2086C183.142 58.7928 183.431 59.2362 183.813 59.5388C184.194 59.8413 184.659 59.9926 185.205 59.9926C185.638 59.9926 186.048 59.9326 186.436 59.8126C186.824 59.6926 187.208 59.5492 187.59 59.3823V61.3384C187.189 61.521 186.757 61.6592 186.293 61.7531C185.835 61.847 185.342 61.8939 184.814 61.8939C183.765 61.8939 182.872 61.667 182.134 61.2132C181.403 60.7542 180.843 60.0891 180.456 59.218C180.068 58.3416 179.874 57.2801 179.874 56.0334C179.874 55.1779 179.982 54.3929 180.198 53.6783C180.421 52.9584 180.745 52.3351 181.171 51.8082C181.597 51.2762 182.118 50.8641 182.735 50.572C183.358 50.2798 184.07 50.1338 184.872 50.1338C185.431 50.1338 185.972 50.1912 186.493 50.3059C187.014 50.4207 187.517 50.598 188 50.838L187.237 52.6533C186.894 52.4603 186.547 52.309 186.197 52.1994C185.848 52.0847 185.472 52.0273 185.072 52.0273Z" fill="white"/>
</g>
</svg>
