<svg width="300" height="22" viewBox="0 0 300 22" fill="none" xmlns="http://www.w3.org/2000/svg">
<path d="M6.16403 4.29512C7.4425 4.29512 8.52311 4.55316 9.40586 5.06924C10.2988 5.58532 10.9735 6.31782 11.4301 7.26674C11.8867 8.20734 12.115 9.32274 12.115 10.6129V12.4858H3.9876C4.00789 13.7094 4.28185 14.6126 4.80947 15.1952C5.33709 15.7696 6.14374 16.0568 7.22942 16.0568C7.94983 16.0568 8.62965 15.9818 9.26888 15.832C9.91826 15.6739 10.6082 15.4075 11.3388 15.0329V17.8048C10.659 18.1377 9.93348 18.3791 9.16234 18.5289C8.3912 18.6871 7.55918 18.7662 6.66629 18.7662C5.10372 18.7662 3.83033 18.479 2.84611 17.9047C1.86189 17.322 1.14149 16.4979 0.684893 15.4325C0.228298 14.3587 0 13.0851 0 11.6118C0 10.0386 0.228298 8.71093 0.684893 7.62883C1.15163 6.5384 1.8416 5.71018 2.75479 5.14415C3.66798 4.57813 4.80439 4.29512 6.16403 4.29512ZM6.25535 6.90465C5.58568 6.90465 5.05299 7.15437 4.65727 7.6538C4.26155 8.14491 4.04848 8.95233 4.01804 10.076H8.35569C8.35569 9.41846 8.27452 8.85244 8.11217 8.37798C7.94983 7.90352 7.71138 7.54143 7.39684 7.29171C7.0823 7.03367 6.7018 6.90465 6.25535 6.90465Z" fill="#085FA0"/>
<path d="M14.9221 13.2474V10.0511H22.6843V13.2474H14.9221Z" fill="#085FA0"/>
<path d="M36.5106 18.5165H26.5111V0.262202H36.5106V3.24631H30.7879V7.54143H36.1148V10.538H30.7879V15.4699H36.5106V18.5165Z" fill="#085FA0"/>
<path d="M49.5759 14.4211C49.5759 15.37 49.3577 16.1691 48.9214 16.8184C48.4953 17.4593 47.8713 17.9463 47.0494 18.2792C46.2377 18.6039 45.2585 18.7662 44.112 18.7662C43.2901 18.7662 42.5037 18.6996 41.7529 18.5664C41.0122 18.4415 40.3121 18.2459 39.6525 17.9796V14.7582C40.2005 15.0662 40.8346 15.3326 41.555 15.5573C42.2754 15.7737 43.006 15.882 43.7467 15.882C44.3149 15.882 44.7512 15.7737 45.0556 15.5573C45.36 15.3409 45.5122 15.0246 45.5122 14.6084C45.5122 14.3753 45.4513 14.1589 45.3295 13.9591C45.2078 13.751 44.9643 13.5346 44.599 13.3099C44.2337 13.0768 43.6858 12.8104 42.9552 12.5108C42.2551 12.1945 41.6565 11.8324 41.1593 11.4245C40.6621 11.0166 40.2816 10.5505 40.0178 10.0261C39.754 9.5017 39.6221 8.90655 39.6221 8.24063C39.6221 7.0087 40.0888 6.03897 41.0223 5.33144C41.9558 4.62391 43.2343 4.27015 44.8577 4.27015C45.6897 4.27015 46.471 4.36587 47.2016 4.55732C47.9423 4.74045 48.6678 5.01097 49.378 5.3689L48.267 7.92849C47.7799 7.66213 47.2675 7.43738 46.7298 7.25426C46.192 7.07113 45.6441 6.97957 45.086 6.97957C44.5888 6.97957 44.2083 7.07945 43.9445 7.27923C43.6807 7.47068 43.5488 7.73704 43.5488 8.07832C43.5488 8.31971 43.6097 8.52781 43.7315 8.70261C43.8532 8.87741 44.0917 9.07302 44.4468 9.28944C44.8121 9.49754 45.3448 9.77639 46.0449 10.126C46.745 10.4589 47.3588 10.821 47.8865 11.2123C48.4141 11.6035 48.825 12.0571 49.1193 12.5732C49.4237 13.0893 49.5759 13.7053 49.5759 14.4211Z" fill="#085FA0"/>
<path d="M58.7906 15.857C59.0747 15.857 59.374 15.8278 59.6885 15.7696C60.0132 15.703 60.3481 15.6031 60.6931 15.4699V18.1294C60.2466 18.3375 59.7545 18.4956 59.2167 18.6039C58.6891 18.7121 58.126 18.7662 57.5273 18.7662C56.5533 18.7662 55.7567 18.608 55.1378 18.2917C54.529 17.9671 54.0826 17.4801 53.7985 16.8309C53.5144 16.1733 53.3723 15.3451 53.3723 14.3462V7.29171H51.6981V5.50624L53.6919 4.63224L54.6508 1.5857H57.4208V4.53235H60.48V7.29171H57.4208V14.2213C57.4208 14.7707 57.5223 15.1827 57.7252 15.4574C57.9383 15.7238 58.2934 15.857 58.7906 15.857Z" fill="#085FA0"/>
<path d="M69.8469 4.27015C71.5008 4.27015 72.7589 4.6905 73.6214 5.53121C74.494 6.3636 74.9303 7.60802 74.9303 9.26447V18.5165H71.9624L71.308 16.6436H71.2167C70.8717 17.118 70.5013 17.5134 70.1056 17.8297C69.72 18.146 69.2787 18.3791 68.7815 18.5289C68.2843 18.6871 67.7009 18.7662 67.0312 18.7662C66.0876 18.7662 65.3215 18.5581 64.733 18.1419C64.1546 17.7257 63.7336 17.1846 63.4698 16.5187C63.2059 15.8528 63.074 15.1453 63.074 14.3961C63.074 12.9395 63.5661 11.8365 64.5504 11.0874C65.5346 10.3383 66.9348 9.93454 68.751 9.87628L70.8666 9.80136V9.2395C70.8666 8.4737 70.7195 7.90352 70.4252 7.52894C70.1411 7.14605 69.6693 6.9546 69.0098 6.9546C68.5227 6.9546 67.99 7.03367 67.4117 7.19183C66.8333 7.34998 66.1992 7.59553 65.5092 7.92849L64.3829 5.44381C65.1541 5.06092 66.0013 4.76958 66.9247 4.56981C67.848 4.37003 68.8221 4.27015 69.8469 4.27015ZM70.8666 12.0238L69.7251 12.0738C68.8626 12.1071 68.2183 12.3068 67.7922 12.6731C67.3762 13.031 67.1682 13.5554 67.1682 14.2463C67.1682 14.8706 67.295 15.3367 67.5487 15.6447C67.8125 15.9527 68.193 16.1067 68.6902 16.1067C69.3294 16.1067 69.8519 15.8528 70.2578 15.3451C70.6637 14.8373 70.8666 14.1547 70.8666 13.2974V12.0238Z" fill="#085FA0"/>
<path d="M85.0125 15.857C85.2966 15.857 85.5959 15.8278 85.9105 15.7696C86.2352 15.703 86.57 15.6031 86.915 15.4699V18.1294C86.4686 18.3375 85.9764 18.4956 85.4387 18.6039C84.9111 18.7121 84.3479 18.7662 83.7493 18.7662C82.7752 18.7662 81.9787 18.608 81.3598 18.2917C80.751 17.9671 80.3045 17.4801 80.0204 16.8309C79.7363 16.1733 79.5943 15.3451 79.5943 14.3462V7.29171H77.9201V5.50624L79.9139 4.63224L80.8727 1.5857H83.6427V4.53235H86.7019V7.29171H83.6427V14.2213C83.6427 14.7707 83.7442 15.1827 83.9471 15.4574C84.1602 15.7238 84.5153 15.857 85.0125 15.857Z" fill="#085FA0"/>
<path d="M95.6883 4.29512C96.9668 4.29512 98.0474 4.55316 98.9301 5.06924C99.823 5.58532 100.498 6.31782 100.954 7.26674C101.411 8.20734 101.639 9.32274 101.639 10.6129V12.4858H93.5119C93.5322 13.7094 93.8061 14.6126 94.3338 15.1952C94.8614 15.7696 95.668 16.0568 96.7537 16.0568C97.4741 16.0568 98.1539 15.9818 98.7932 15.832C99.4425 15.6739 100.133 15.4075 100.863 15.0329V17.8048C100.183 18.1377 99.4578 18.3791 98.6866 18.5289C97.9155 18.6871 97.0835 18.7662 96.1906 18.7662C94.628 18.7662 93.3546 18.479 92.3704 17.9047C91.3862 17.322 90.6658 16.4979 90.2092 15.4325C89.7526 14.3587 89.5243 13.0851 89.5243 11.6118C89.5243 10.0386 89.7526 8.71093 90.2092 7.62883C90.6759 6.5384 91.3659 5.71018 92.2791 5.14415C93.1923 4.57813 94.3287 4.29512 95.6883 4.29512ZM95.7796 6.90465C95.11 6.90465 94.5773 7.15437 94.1816 7.6538C93.7858 8.14491 93.5728 8.95233 93.5423 10.076H97.88C97.88 9.41846 97.7988 8.85244 97.6365 8.37798C97.4741 7.90352 97.2357 7.54143 96.9211 7.29171C96.6066 7.03367 96.2261 6.90465 95.7796 6.90465Z" fill="#085FA0"/>
<path d="M114.4 14.4211C114.4 15.37 114.182 16.1691 113.746 16.8184C113.32 17.4593 112.696 17.9463 111.874 18.2792C111.062 18.6039 110.083 18.7662 108.936 18.7662C108.114 18.7662 107.328 18.6996 106.577 18.5664C105.837 18.4415 105.136 18.2459 104.477 17.9796V14.7582C105.025 15.0662 105.659 15.3326 106.379 15.5573C107.1 15.7737 107.83 15.882 108.571 15.882C109.139 15.882 109.576 15.7737 109.88 15.5573C110.184 15.3409 110.337 15.0246 110.337 14.6084C110.337 14.3753 110.276 14.1589 110.154 13.9591C110.032 13.751 109.789 13.5346 109.423 13.3099C109.058 13.0768 108.51 12.8104 107.78 12.5108C107.079 12.1945 106.481 11.8324 105.984 11.4245C105.486 11.0166 105.106 10.5505 104.842 10.0261C104.578 9.5017 104.446 8.90655 104.446 8.24063C104.446 7.0087 104.913 6.03897 105.847 5.33144C106.78 4.62391 108.059 4.27015 109.682 4.27015C110.514 4.27015 111.295 4.36587 112.026 4.55732C112.767 4.74045 113.492 5.01097 114.202 5.3689L113.091 7.92849C112.604 7.66213 112.092 7.43738 111.554 7.25426C111.016 7.07113 110.468 6.97957 109.91 6.97957C109.413 6.97957 109.033 7.07945 108.769 7.27923C108.505 7.47068 108.373 7.73704 108.373 8.07832C108.373 8.31971 108.434 8.52781 108.556 8.70261C108.678 8.87741 108.916 9.07302 109.271 9.28944C109.636 9.49754 110.169 9.77639 110.869 10.126C111.569 10.4589 112.183 10.821 112.711 11.2123C113.238 11.6035 113.649 12.0571 113.944 12.5732C114.248 13.0893 114.4 13.7053 114.4 14.4211Z" fill="#085FA0"/>
<path d="M130.44 0.0249716C131.516 0.0249716 132.424 0.191449 133.164 0.524404C133.905 0.857359 134.468 1.33182 134.854 1.94779C135.239 2.56375 135.432 3.30458 135.432 4.17026C135.432 5.12751 135.158 5.99319 134.61 6.76731C134.073 7.54143 133.306 8.25312 132.312 8.90238L134.808 11.9239C135.021 11.5327 135.199 11.0832 135.341 10.5755C135.493 10.0677 135.615 9.5017 135.706 8.87741H139.983C139.821 9.87628 139.531 10.9001 139.115 11.9489C138.71 12.9894 138.177 13.9508 137.517 14.8331L140.85 18.5165H135.706L134.61 17.1305C134.113 17.4801 133.591 17.7756 133.043 18.017C132.505 18.2584 131.921 18.4415 131.292 18.5664C130.663 18.6996 129.963 18.7662 129.192 18.7662C127.924 18.7662 126.863 18.5539 126.011 18.1294C125.169 17.6966 124.535 17.0972 124.109 16.3314C123.693 15.5573 123.485 14.6583 123.485 13.6345C123.485 12.902 123.617 12.2319 123.88 11.6243C124.144 11.0083 124.545 10.4423 125.083 9.92622C125.62 9.41014 126.305 8.93984 127.137 8.51532C126.721 8.04086 126.376 7.57889 126.102 7.1294C125.828 6.67991 125.626 6.21377 125.494 5.73099C125.362 5.23988 125.296 4.71131 125.296 4.14529C125.296 3.3129 125.509 2.58872 125.935 1.97276C126.361 1.35679 126.96 0.878169 127.731 0.53689C128.502 0.195611 129.405 0.0249716 130.44 0.0249716ZM129.07 10.6129C128.735 10.8627 128.467 11.129 128.264 11.412C128.061 11.6867 127.909 11.9905 127.807 12.3235C127.716 12.6481 127.67 13.0144 127.67 13.4222C127.67 14.0882 127.863 14.65 128.248 15.1078C128.634 15.5573 129.167 15.7821 129.846 15.7821C130.384 15.7821 130.851 15.6863 131.247 15.4949C131.642 15.3034 132.028 15.0246 132.403 14.6583L129.07 10.6129ZM130.41 2.50965C130.034 2.50965 129.725 2.64699 129.481 2.92168C129.248 3.18804 129.131 3.59591 129.131 4.14529C129.131 4.55316 129.228 4.99432 129.42 5.46879C129.623 5.94325 129.912 6.38857 130.288 6.80477C130.765 6.46349 131.115 6.05146 131.338 5.56867C131.571 5.07756 131.688 4.56981 131.688 4.0454C131.688 3.52932 131.571 3.14642 131.338 2.89671C131.105 2.63867 130.795 2.50965 130.41 2.50965Z" fill="#085FA0"/>
<path d="M156.997 18.5165H152.781V3.29625H148.641V0.262202H161.106V3.29625H156.997V18.5165Z" fill="#085FA0"/>
<path d="M171.691 4.27015C171.914 4.27015 172.132 4.2868 172.345 4.32009C172.558 4.34506 172.807 4.39084 173.091 4.45743L172.726 8.0034C172.523 7.93681 172.299 7.89103 172.056 7.86606C171.823 7.84109 171.564 7.8286 171.28 7.8286C170.813 7.8286 170.397 7.91184 170.032 8.07832C169.666 8.2448 169.357 8.48619 169.103 8.8025C168.86 9.11048 168.672 9.48505 168.54 9.92622C168.418 10.3591 168.358 10.846 168.358 11.3871V18.5165H164.309V4.53235H167.429L168.007 6.82974H168.205C168.429 6.38857 168.708 5.97238 169.042 5.58116C169.377 5.18994 169.768 4.87363 170.214 4.63224C170.661 4.39084 171.153 4.27015 171.691 4.27015Z" fill="#085FA0"/>
<path d="M188.165 4.53235V18.5165H184.984L184.528 16.731H184.299C184.046 17.1805 183.736 17.555 183.371 17.8547C183.006 18.1544 182.585 18.3791 182.108 18.5289C181.641 18.6871 181.118 18.7662 180.54 18.7662C179.536 18.7662 178.699 18.5622 178.029 18.1544C177.359 17.7465 176.857 17.1638 176.522 16.4064C176.187 15.6406 176.02 14.7249 176.02 13.6595V4.53235H180.068V12.6606C180.068 13.7094 180.195 14.496 180.449 15.0204C180.702 15.5448 181.113 15.807 181.682 15.807C182.361 15.807 182.874 15.6447 183.219 15.3201C183.564 14.9955 183.797 14.521 183.919 13.8967C184.051 13.2724 184.117 12.5191 184.117 11.6368V4.53235H188.165Z" fill="#085FA0"/>
<path d="M201.672 14.4211C201.672 15.37 201.454 16.1691 201.017 16.8184C200.591 17.4593 199.967 17.9463 199.145 18.2792C198.334 18.6039 197.355 18.7662 196.208 18.7662C195.386 18.7662 194.6 18.6996 193.849 18.5664C193.108 18.4415 192.408 18.2459 191.749 17.9796V14.7582C192.297 15.0662 192.931 15.3326 193.651 15.5573C194.372 15.7737 195.102 15.882 195.843 15.882C196.411 15.882 196.847 15.7737 197.152 15.5573C197.456 15.3409 197.608 15.0246 197.608 14.6084C197.608 14.3753 197.547 14.1589 197.426 13.9591C197.304 13.751 197.06 13.5346 196.695 13.3099C196.33 13.0768 195.782 12.8104 195.051 12.5108C194.351 12.1945 193.753 11.8324 193.255 11.4245C192.758 11.0166 192.378 10.5505 192.114 10.0261C191.85 9.5017 191.718 8.90655 191.718 8.24063C191.718 7.0087 192.185 6.03897 193.118 5.33144C194.052 4.62391 195.33 4.27015 196.954 4.27015C197.786 4.27015 198.567 4.36587 199.298 4.55732C200.038 4.74045 200.764 5.01097 201.474 5.3689L200.363 7.92849C199.876 7.66213 199.364 7.43738 198.826 7.25426C198.288 7.07113 197.74 6.97957 197.182 6.97957C196.685 6.97957 196.304 7.07945 196.041 7.27923C195.777 7.47068 195.645 7.73704 195.645 8.07832C195.645 8.31971 195.706 8.52781 195.828 8.70261C195.949 8.87741 196.188 9.07302 196.543 9.28944C196.908 9.49754 197.441 9.77639 198.141 10.126C198.841 10.4589 199.455 10.821 199.983 11.2123C200.51 11.6035 200.921 12.0571 201.215 12.5732C201.52 13.0893 201.672 13.7053 201.672 14.4211Z" fill="#085FA0"/>
<path d="M210.887 15.857C211.171 15.857 211.47 15.8278 211.785 15.7696C212.109 15.703 212.444 15.6031 212.789 15.4699V18.1294C212.343 18.3375 211.851 18.4956 211.313 18.6039C210.785 18.7121 210.222 18.7662 209.623 18.7662C208.649 18.7662 207.853 18.608 207.234 18.2917C206.625 17.9671 206.179 17.4801 205.895 16.8309C205.61 16.1733 205.468 15.3451 205.468 14.3462V7.29171H203.794V5.50624L205.788 4.63224L206.747 1.5857H209.517V4.53235H212.576V7.29171H209.517V14.2213C209.517 14.7707 209.618 15.1827 209.821 15.4574C210.034 15.7238 210.389 15.857 210.887 15.857Z" fill="#085FA0"/>
<path d="M225.093 14.4211C225.093 15.37 224.875 16.1691 224.439 16.8184C224.013 17.4593 223.389 17.9463 222.567 18.2792C221.755 18.6039 220.776 18.7662 219.63 18.7662C218.808 18.7662 218.021 18.6996 217.27 18.5664C216.53 18.4415 215.83 18.2459 215.17 17.9796V14.7582C215.718 15.0662 216.352 15.3326 217.073 15.5573C217.793 15.7737 218.524 15.882 219.264 15.882C219.832 15.882 220.269 15.7737 220.573 15.5573C220.878 15.3409 221.03 15.0246 221.03 14.6084C221.03 14.3753 220.969 14.1589 220.847 13.9591C220.725 13.751 220.482 13.5346 220.117 13.3099C219.751 13.0768 219.203 12.8104 218.473 12.5108C217.773 12.1945 217.174 11.8324 216.677 11.4245C216.18 11.0166 215.799 10.5505 215.535 10.0261C215.272 9.5017 215.14 8.90655 215.14 8.24063C215.14 7.0087 215.606 6.03897 216.54 5.33144C217.473 4.62391 218.752 4.27015 220.375 4.27015C221.207 4.27015 221.989 4.36587 222.719 4.55732C223.46 4.74045 224.185 5.01097 224.896 5.3689L223.785 7.92849C223.298 7.66213 222.785 7.43738 222.247 7.25426C221.71 7.07113 221.162 6.97957 220.604 6.97957C220.106 6.97957 219.726 7.07945 219.462 7.27923C219.198 7.47068 219.066 7.73704 219.066 8.07832C219.066 8.31971 219.127 8.52781 219.249 8.70261C219.371 8.87741 219.609 9.07302 219.964 9.28944C220.33 9.49754 220.862 9.77639 221.562 10.126C222.263 10.4589 222.876 10.821 223.404 11.2123C223.932 11.6035 224.343 12.0571 224.637 12.5732C224.941 13.0893 225.093 13.7053 225.093 14.4211Z" fill="#085FA0"/>
<path d="M233.167 15.1203L233.349 15.395C233.177 16.244 232.979 17.0556 232.756 17.8297C232.543 18.5955 232.309 19.3239 232.056 20.0148C231.802 20.714 231.518 21.3757 231.203 22H227.901C228.073 21.3341 228.246 20.5849 228.418 19.7526C228.591 18.9202 228.743 18.0961 228.875 17.2804C229.007 16.4563 229.098 15.7363 229.149 15.1203H233.167Z" fill="#085FA0"/>
<path d="M249.922 0.262202C252.185 0.262202 253.864 0.744987 254.96 1.71056C256.066 2.6678 256.619 4.06621 256.619 5.90579C256.619 6.82974 256.477 7.67045 256.192 8.42792C255.918 9.17707 255.497 9.82217 254.929 10.3632C254.361 10.9043 253.646 11.3205 252.783 11.6118C251.921 11.9031 250.901 12.0488 249.724 12.0488H248.552V18.5165H244.275V0.262202H249.922ZM249.602 3.24631H248.552V9.05221H249.298C249.978 9.05221 250.546 8.94816 251.002 8.74007C251.459 8.53197 251.804 8.19902 252.037 7.7412C252.271 7.28339 252.387 6.67991 252.387 5.93076C252.387 4.99849 252.154 4.32009 251.687 3.89557C251.231 3.46273 250.536 3.24631 249.602 3.24631Z" fill="#085FA0"/>
<path d="M260.491 18.5165V0.262202H264.768V15.4699H270.688V18.5165H260.491Z" fill="#085FA0"/>
<path d="M274.089 18.5165V0.262202H278.366V15.4699H284.286V18.5165H274.089Z" fill="#085FA0"/>
<path d="M295.328 3.02157C294.678 3.02157 294.11 3.17972 293.623 3.49603C293.136 3.81233 292.73 4.26182 292.405 4.84449C292.091 5.41884 291.852 6.09724 291.69 6.87968C291.538 7.66213 291.462 8.51532 291.462 9.43927C291.462 10.7961 291.619 11.9448 291.933 12.8854C292.248 13.8176 292.71 14.5252 293.318 15.0079C293.927 15.4907 294.668 15.7321 295.541 15.7321C296.231 15.7321 296.885 15.6364 297.504 15.4449C298.123 15.2535 298.737 15.0246 299.346 14.7582V17.8797C298.706 18.171 298.016 18.3916 297.276 18.5414C296.545 18.6913 295.759 18.7662 294.917 18.7662C293.242 18.7662 291.817 18.4041 290.64 17.6799C289.473 16.9474 288.58 15.8861 287.961 14.496C287.342 13.0976 287.033 11.4037 287.033 9.4143C287.033 8.04919 287.205 6.79644 287.55 5.65607C287.905 4.50738 288.423 3.51267 289.103 2.67196C289.782 1.82293 290.614 1.16534 291.599 0.699205C292.593 0.233068 293.729 0 295.008 0C295.901 0 296.763 0.0915626 297.595 0.274688C298.427 0.457813 299.229 0.740825 300 1.12372L298.782 4.02043C298.234 3.71245 297.682 3.47106 297.123 3.29625C296.565 3.11313 295.967 3.02157 295.328 3.02157Z" fill="#085FA0"/>
</svg>
