<svg width="25" height="18" viewBox="0 0 25 18" fill="none" xmlns="http://www.w3.org/2000/svg">
<path d="M6.5713 5.57138L12.2857 9.57148L18.0002 5.57138" stroke="#293948" stroke-width="1.5" stroke-linecap="round" stroke-linejoin="round"/>
<path d="M0.856873 14.7146V3.28577C0.856873 2.67955 1.09769 2.09815 1.52636 1.66949C1.95502 1.24082 2.53642 1 3.14264 1H21.4288C22.035 1 22.6164 1.24082 23.0451 1.66949C23.4738 2.09815 23.7146 2.67955 23.7146 3.28577V14.7146C23.7146 15.3208 23.4738 15.9022 23.0451 16.3309C22.6164 16.7596 22.035 17.0004 21.4288 17.0004H3.14264C2.53642 17.0004 1.95502 16.7596 1.52636 16.3309C1.09769 15.9022 0.856873 15.3208 0.856873 14.7146Z" stroke="#293948" stroke-width="1.5"/>
</svg>
