<svg width="23" height="23" viewBox="0 0 23 23" fill="none" xmlns="http://www.w3.org/2000/svg">
<path d="M11.5 1C5.70101 1 1 5.70101 1 11.5C1 17.299 5.70101 22 11.5 22C17.299 22 22 17.299 22 11.5C22 5.70101 17.299 1 11.5 1ZM7.72656 5.17078C7.9429 5.15802 8.13844 5.28733 8.28668 5.51684L9.72223 8.23924C9.87337 8.56184 9.78748 8.90725 9.56201 9.13775L8.90449 9.79527C8.8639 9.85089 8.8372 9.91352 8.83655 9.9824C9.08871 10.9585 9.8536 11.8588 10.5285 12.478C11.2033 13.0971 11.9286 13.9354 12.8702 14.134C12.9866 14.1664 13.1291 14.1781 13.2124 14.1007L13.9763 13.3226C14.24 13.1228 14.6215 13.0259 14.903 13.1893H14.9158L17.5062 14.7185C17.8864 14.9568 17.9258 15.4175 17.6536 15.6977L15.8695 17.4678C15.606 17.738 15.2559 17.8288 14.9159 17.8292C13.4118 17.7842 11.9906 17.0459 10.8233 16.2873C8.9072 14.8934 7.14962 13.1645 6.04621 11.0757C5.62303 10.1999 5.12591 9.08232 5.17335 8.1047C5.17758 7.73692 5.27709 7.37662 5.53609 7.13956L7.32026 5.35538C7.45925 5.23712 7.59675 5.17844 7.72656 5.17078Z" stroke="#293948" stroke-width="1.4"/>
</svg>
