<svg width="252" height="70" viewBox="0 0 252 70" fill="none" xmlns="http://www.w3.org/2000/svg">
<rect x="79" y="69" width="79" height="5" transform="rotate(-180 79 69)" fill="#8FEB25"/>
<rect x="252" y="69" width="79" height="5" transform="rotate(-180 252 69)" fill="#8FEB25"/>
<path fill-rule="evenodd" clip-rule="evenodd" d="M154.5 0H97.3616L98.716 2.53355L104.549 16.3708V16.3853H109.879L109.879 59.7214H113.879L113.879 16.3853H119.683L119.683 59.7214H123.683L123.683 16.3853H129.487L129.487 59.7214H133.487L133.487 16.3853H139.291L139.291 59.7214H143.291L143.291 16.3853H147.188V16.3548L147.257 16.3841L152.938 2.90818L154.5 0ZM107.21 12.3853H144.602L148.137 4H103.675L107.21 12.3853ZM105.864 69.2091H145.712V65.2091H105.864V69.2091Z" fill="#085FA0"/>
</svg>
