<svg width="29" height="38" viewBox="0 0 29 38" fill="none" xmlns="http://www.w3.org/2000/svg">
<g opacity="0.8">
<path d="M0.291846 34.0998L0.291846 34.1C0.292787 34.8956 0.612014 35.6583 1.17922 36.2206C1.7464 36.7829 2.5152 37.0991 3.31694 37.1001H3.31706H22.0378C22.2192 37.1001 22.3933 37.0286 22.5219 36.9012C22.6504 36.7737 22.7228 36.6006 22.7228 36.42C22.7228 36.2394 22.6504 36.0663 22.5219 35.9388C22.3933 35.8114 22.2192 35.74 22.0378 35.74H3.31717C2.87805 35.7395 2.45723 35.5663 2.14698 35.2587C1.83679 34.9512 1.66245 34.5344 1.66193 34.0998C1.66193 34.0998 1.66193 34.0998 1.66193 34.0997L1.66193 7.41793C1.66193 7.2373 1.58955 7.06423 1.46098 6.93677C1.33245 6.80933 1.1583 6.73789 0.976888 6.73789C0.795479 6.73789 0.621329 6.80933 0.492794 6.93677C0.36423 7.06423 0.291846 7.2373 0.291846 7.41793L0.291846 34.0998Z" fill="#293948" stroke="#293948" stroke-width="0.2"/>
<path d="M25.669 0.9H25.6689L3.33104 0.9L3.33092 0.9C2.52559 0.900933 1.75327 1.21734 1.18345 1.78019C0.613585 2.34308 0.292792 3.10652 0.291846 3.90311V3.90323V5.06452C0.291846 5.24543 0.364617 5.41869 0.493746 5.54624C0.622832 5.67375 0.797652 5.74516 0.979684 5.74516C1.16171 5.74516 1.33654 5.67375 1.46562 5.54624C1.59475 5.41869 1.66752 5.24543 1.66752 5.06452L1.66752 3.90334C1.66752 3.90331 1.66752 3.90327 1.66752 3.90324C1.66752 3.90323 1.66752 3.90323 1.66752 3.90323C1.66805 3.46832 1.84317 3.05112 2.1549 2.74321C2.46666 2.43526 2.88961 2.26181 3.33104 2.26129C3.33107 2.26129 3.33111 2.26129 3.33115 2.26129H25.6688C25.6688 2.26129 25.6688 2.26129 25.6689 2.26129C26.1103 2.26179 26.5333 2.43523 26.845 2.74319C27.1568 3.05113 27.3319 3.46838 27.3324 3.90334V34.0967C27.3319 34.5316 27.1568 34.9489 26.845 35.2568C26.5332 35.5648 26.1102 35.7382 25.6688 35.7387H24.4932C24.3112 35.7387 24.1363 35.8101 24.0073 35.9376C23.8781 36.0652 23.8054 36.2384 23.8054 36.4194C23.8054 36.6003 23.8781 36.7735 24.0073 36.9011C24.1363 37.0286 24.3112 37.1 24.4932 37.1H25.6689H25.669C26.4743 37.0991 27.2466 36.7827 27.8165 36.2198C28.3863 35.6569 28.7071 34.8935 28.7081 34.0969V34.0968V3.90323V3.90311C28.7071 3.10652 28.3863 2.34308 27.8165 1.78019C27.2466 1.21734 26.4743 0.900933 25.669 0.9Z" fill="#293948" stroke="#293948" stroke-width="0.2"/>
<path d="M3.71201 18.2094C3.71201 18.4095 3.78173 18.6036 3.90907 18.7485C4.03677 18.8938 4.21295 18.9784 4.39985 18.9784H12.6296C12.8165 18.9784 12.9927 18.8938 13.1204 18.7485C13.2477 18.6036 13.3174 18.4095 13.3174 18.2094C13.3174 18.0094 13.2477 17.8153 13.1204 17.6704C12.9927 17.5251 12.8165 17.4405 12.6296 17.4405H4.39985C4.21295 17.4405 4.03677 17.5251 3.90907 17.6704C3.78173 17.8153 3.71201 18.0094 3.71201 18.2094Z" fill="#293948" stroke="#293948" stroke-width="0.2"/>
<path d="M4.50672 21.654H24.4932C24.6801 21.654 24.8563 21.5694 24.984 21.4241C25.1113 21.2792 25.181 21.0852 25.181 20.8851C25.181 20.685 25.1113 20.491 24.984 20.3461C24.8563 20.2008 24.6801 20.1162 24.4932 20.1162H4.50672C4.31982 20.1162 4.14364 20.2008 4.01594 20.3461C3.88861 20.491 3.81888 20.685 3.81888 20.8851C3.81888 21.0852 3.88861 21.2792 4.01594 21.4241C4.14364 21.5694 4.31982 21.654 4.50672 21.654Z" fill="#293948" stroke="#293948" stroke-width="0.2"/>
<path d="M4.50672 24.3297H24.4932C24.6801 24.3297 24.8563 24.2451 24.984 24.0998C25.1113 23.9549 25.181 23.7608 25.181 23.5608C25.181 23.3607 25.1113 23.1667 24.984 23.0218C24.8563 22.8764 24.6801 22.7918 24.4932 22.7918H4.50672C4.31982 22.7918 4.14364 22.8764 4.01594 23.0218C3.88861 23.1667 3.81888 23.3607 3.81888 23.5608C3.81888 23.7608 3.88861 23.9549 4.01594 24.0998C4.14364 24.2451 4.31982 24.3297 4.50672 24.3297Z" fill="#293948" stroke="#293948" stroke-width="0.2"/>
<path d="M4.50672 27.0055H21.554C21.7409 27.0055 21.9171 26.9209 22.0448 26.7756C22.1721 26.6307 22.2419 26.4366 22.2419 26.2365C22.2419 26.0365 22.1721 25.8424 22.0448 25.6975C21.9171 25.5522 21.7409 25.4676 21.554 25.4676H4.50672C4.31982 25.4676 4.14364 25.5522 4.01594 25.6975C3.88861 25.8424 3.81888 26.0365 3.81888 26.2365C3.81888 26.4366 3.88861 26.6307 4.01594 26.7756C4.14364 26.9209 4.31982 27.0055 4.50672 27.0055Z" fill="#293948" stroke="#293948" stroke-width="0.2"/>
<path d="M25.18 31.2111L25.181 31.2107V31.142V29.581C25.181 29.381 25.1113 29.1869 24.984 29.042C24.8563 28.8967 24.6801 28.8121 24.4932 28.8121C24.3063 28.8121 24.1301 28.8967 24.0024 29.042C23.8751 29.1869 23.8054 29.381 23.8054 29.581V31.142V31.142C23.8054 31.3579 23.7457 31.5673 23.636 31.7405C23.5264 31.9135 23.3733 32.0406 23.2 32.1063C23.0271 32.1719 22.8409 32.1739 22.667 32.1121C22.4928 32.0501 22.3377 31.9264 22.2254 31.7559L22.2253 31.7558L20.9321 29.7936L20.9321 29.7935C20.8539 29.6749 20.7458 29.5826 20.6196 29.5299C20.4932 29.4771 20.3554 29.4668 20.2234 29.5009C20.0916 29.5349 19.9732 29.6112 19.8816 29.7181C19.79 29.8249 19.7287 29.9582 19.7035 30.1014L19.7035 30.1014L19.1157 33.446C19.1157 33.446 19.1157 33.446 19.1157 33.446C19.0812 33.6425 19.1163 33.8473 19.2152 34.0161C19.3141 34.1851 19.4706 34.3064 19.653 34.348L19.6531 34.348C19.6985 34.3583 19.7447 34.3635 19.7911 34.3635H19.7913C19.9539 34.3633 20.1094 34.299 20.2317 34.1848C20.3537 34.0709 20.4353 33.9145 20.4654 33.7432L20.4654 33.7432L20.752 32.1132L21.1176 32.6678C21.1176 32.6678 21.1176 32.6679 21.1176 32.6679C21.3999 33.0964 21.7952 33.4153 22.249 33.5767C22.7032 33.7382 23.1909 33.733 23.6422 33.5619C24.0932 33.3909 24.483 33.0638 24.7582 32.6295C25.0215 32.214 25.1677 31.7198 25.18 31.2111Z" fill="#293948" stroke="#293948" stroke-width="0.2"/>
<path d="M24.4932 25.4676H23.9053C23.7184 25.4676 23.5423 25.5522 23.4146 25.6975C23.2872 25.8424 23.2175 26.0365 23.2175 26.2365C23.2175 26.4366 23.2872 26.6307 23.4146 26.7756C23.5423 26.9209 23.7184 27.0055 23.9053 27.0055H24.4932C24.6801 27.0055 24.8563 26.9209 24.984 26.7756C25.1113 26.6307 25.181 26.4366 25.181 26.2365C25.181 26.0365 25.1113 25.8424 24.984 25.6975C24.8563 25.5522 24.6801 25.4676 24.4932 25.4676Z" fill="#293948" stroke="#293948" stroke-width="0.2"/>
<mask id="path-9-outside-1_1_127" maskUnits="userSpaceOnUse" x="2.92487" y="3.66809" width="12" height="12" fill="black">
<rect fill="white" x="2.92487" y="3.66809" width="12" height="12"/>
<path d="M4.20703 8.78377V4.66809H4.8637V8.14744H6.59771V8.78377H4.20703Z"/>
<path d="M8.00608 8.84214C7.82481 8.84214 7.66235 8.80323 7.51871 8.72539C7.37848 8.64366 7.26733 8.53469 7.18524 8.39847C7.10658 8.26225 7.06725 8.10852 7.06725 7.93728C7.06725 7.72712 7.11513 7.56171 7.21089 7.44106C7.30666 7.31652 7.46227 7.22701 7.67774 7.17252C7.89321 7.11804 8.18222 7.09079 8.54475 7.09079H8.72431V6.9682C8.72431 6.7736 8.68669 6.6335 8.61144 6.54787C8.5362 6.46225 8.40965 6.41944 8.23181 6.41944C8.09158 6.41944 7.94793 6.44474 7.80087 6.49533C7.6538 6.54204 7.50503 6.61598 7.35454 6.71717L7.16985 6.22096C7.25877 6.1509 7.36309 6.09058 7.48279 6.03998C7.60592 5.9855 7.73418 5.94463 7.86756 5.91739C8.00437 5.88625 8.13262 5.87069 8.25233 5.87069C8.61828 5.87069 8.89019 5.96798 9.06803 6.16258C9.24588 6.35328 9.3348 6.65101 9.3348 7.05577V8.78377H8.73457V8.32842C8.67643 8.48798 8.58408 8.61447 8.45754 8.70787C8.33099 8.79739 8.1805 8.84214 8.00608 8.84214ZM8.13946 8.34009C8.30705 8.34009 8.44557 8.27393 8.55501 8.1416C8.66788 8.00928 8.72431 7.84193 8.72431 7.63955V7.51112H8.54988C8.22839 7.51112 8.00437 7.54031 7.87782 7.59869C7.7547 7.65317 7.69313 7.75436 7.69313 7.90225C7.69313 8.03069 7.73247 8.13577 7.81113 8.2175C7.88979 8.29923 7.99924 8.34009 8.13946 8.34009Z"/>
<path d="M11.0579 8.84214C10.8459 8.84214 10.6475 8.81296 10.4628 8.75458C10.2781 8.6962 10.1242 8.61252 10.0011 8.50355L10.1653 8.02485C10.2918 8.12214 10.4337 8.19804 10.5911 8.25252C10.7484 8.30312 10.9057 8.32842 11.063 8.32842C11.2272 8.32842 11.3486 8.29728 11.4273 8.23501C11.5094 8.16885 11.5504 8.08323 11.5504 7.97814C11.5504 7.81469 11.4444 7.7096 11.2323 7.6629L10.7193 7.55198C10.285 7.45858 10.0678 7.20171 10.0678 6.78139C10.0678 6.59458 10.1122 6.43306 10.2012 6.29685C10.2935 6.16063 10.4201 6.05555 10.5808 5.9816C10.7416 5.90766 10.9262 5.87069 11.1349 5.87069C11.3127 5.87069 11.4837 5.89987 11.6479 5.95825C11.8121 6.01274 11.9523 6.09642 12.0686 6.20928L11.8941 6.68798C11.795 6.59458 11.6753 6.52063 11.535 6.46615C11.3982 6.41166 11.2665 6.38442 11.14 6.38442C10.9724 6.38442 10.8476 6.4175 10.7655 6.48366C10.6868 6.54982 10.6475 6.63739 10.6475 6.74636C10.6475 6.9176 10.745 7.02269 10.9399 7.0616L11.4529 7.17252C11.6753 7.21923 11.8428 7.30485 11.9557 7.42939C12.072 7.55393 12.1301 7.72128 12.1301 7.93144C12.1301 8.21555 12.0327 8.43933 11.8377 8.60279C11.6428 8.76236 11.3828 8.84214 11.0579 8.84214Z"/>
<path d="M13.9226 8.84214C13.2591 8.84214 12.9274 8.46852 12.9274 7.72128V6.47782H12.4451V5.92906H12.9274V5.07674H13.5686V5.92906H14.3279V6.47782H13.5686V7.68042C13.5686 7.86723 13.6046 8.00733 13.6764 8.10074C13.7482 8.19414 13.8645 8.24085 14.0252 8.24085C14.0731 8.24085 14.1227 8.23501 14.174 8.22333C14.2253 8.20777 14.2783 8.1922 14.333 8.17663L14.4305 8.71371C14.369 8.75263 14.2903 8.78377 14.1945 8.80712C14.1022 8.83047 14.0115 8.84214 13.9226 8.84214Z"/>
<path d="M5.20229 14.6216L3.92487 10.5059H4.60206L5.49984 13.5416L6.4438 10.5059H6.93118L7.85462 13.5825L8.77806 10.5059H9.41933L8.13165 14.6216H7.58784L6.66953 11.6501L5.74609 14.6216H5.20229Z"/>
<path d="M9.96971 11.1539V10.4417H10.6879V11.1539H9.96971ZM10.0108 14.6216V11.7669H10.652V14.6216H10.0108Z"/>
<path d="M12.3444 14.68C12.0468 14.68 11.8262 14.5885 11.6826 14.4056C11.5424 14.2188 11.4723 13.9464 11.4723 13.5883V10.5059H12.1135V13.5533C12.1135 13.9036 12.2435 14.0787 12.5034 14.0787C12.5411 14.0787 12.5787 14.0767 12.6163 14.0728C12.6539 14.069 12.6898 14.0612 12.724 14.0495L12.7138 14.6274C12.5907 14.6625 12.4675 14.68 12.3444 14.68Z"/>
<path d="M14.1366 14.68C13.839 14.68 13.6184 14.5885 13.4748 14.4056C13.3345 14.2188 13.2644 13.9464 13.2644 13.5883V10.5059H13.9057V13.5533C13.9057 13.9036 14.0357 14.0787 14.2956 14.0787C14.3332 14.0787 14.3709 14.0767 14.4085 14.0728C14.4461 14.069 14.482 14.0612 14.5162 14.0495L14.5059 14.6274C14.3828 14.6625 14.2597 14.68 14.1366 14.68Z"/>
</mask>
<path d="M4.20703 8.78377V4.66809H4.8637V8.14744H6.59771V8.78377H4.20703Z" fill="#293948"/>
<path d="M8.00608 8.84214C7.82481 8.84214 7.66235 8.80323 7.51871 8.72539C7.37848 8.64366 7.26733 8.53469 7.18524 8.39847C7.10658 8.26225 7.06725 8.10852 7.06725 7.93728C7.06725 7.72712 7.11513 7.56171 7.21089 7.44106C7.30666 7.31652 7.46227 7.22701 7.67774 7.17252C7.89321 7.11804 8.18222 7.09079 8.54475 7.09079H8.72431V6.9682C8.72431 6.7736 8.68669 6.6335 8.61144 6.54787C8.5362 6.46225 8.40965 6.41944 8.23181 6.41944C8.09158 6.41944 7.94793 6.44474 7.80087 6.49533C7.6538 6.54204 7.50503 6.61598 7.35454 6.71717L7.16985 6.22096C7.25877 6.1509 7.36309 6.09058 7.48279 6.03998C7.60592 5.9855 7.73418 5.94463 7.86756 5.91739C8.00437 5.88625 8.13262 5.87069 8.25233 5.87069C8.61828 5.87069 8.89019 5.96798 9.06803 6.16258C9.24588 6.35328 9.3348 6.65101 9.3348 7.05577V8.78377H8.73457V8.32842C8.67643 8.48798 8.58408 8.61447 8.45754 8.70787C8.33099 8.79739 8.1805 8.84214 8.00608 8.84214ZM8.13946 8.34009C8.30705 8.34009 8.44557 8.27393 8.55501 8.1416C8.66788 8.00928 8.72431 7.84193 8.72431 7.63955V7.51112H8.54988C8.22839 7.51112 8.00437 7.54031 7.87782 7.59869C7.7547 7.65317 7.69313 7.75436 7.69313 7.90225C7.69313 8.03069 7.73247 8.13577 7.81113 8.2175C7.88979 8.29923 7.99924 8.34009 8.13946 8.34009Z" fill="#293948"/>
<path d="M11.0579 8.84214C10.8459 8.84214 10.6475 8.81296 10.4628 8.75458C10.2781 8.6962 10.1242 8.61252 10.0011 8.50355L10.1653 8.02485C10.2918 8.12214 10.4337 8.19804 10.5911 8.25252C10.7484 8.30312 10.9057 8.32842 11.063 8.32842C11.2272 8.32842 11.3486 8.29728 11.4273 8.23501C11.5094 8.16885 11.5504 8.08323 11.5504 7.97814C11.5504 7.81469 11.4444 7.7096 11.2323 7.6629L10.7193 7.55198C10.285 7.45858 10.0678 7.20171 10.0678 6.78139C10.0678 6.59458 10.1122 6.43306 10.2012 6.29685C10.2935 6.16063 10.4201 6.05555 10.5808 5.9816C10.7416 5.90766 10.9262 5.87069 11.1349 5.87069C11.3127 5.87069 11.4837 5.89987 11.6479 5.95825C11.8121 6.01274 11.9523 6.09642 12.0686 6.20928L11.8941 6.68798C11.795 6.59458 11.6753 6.52063 11.535 6.46615C11.3982 6.41166 11.2665 6.38442 11.14 6.38442C10.9724 6.38442 10.8476 6.4175 10.7655 6.48366C10.6868 6.54982 10.6475 6.63739 10.6475 6.74636C10.6475 6.9176 10.745 7.02269 10.9399 7.0616L11.4529 7.17252C11.6753 7.21923 11.8428 7.30485 11.9557 7.42939C12.072 7.55393 12.1301 7.72128 12.1301 7.93144C12.1301 8.21555 12.0327 8.43933 11.8377 8.60279C11.6428 8.76236 11.3828 8.84214 11.0579 8.84214Z" fill="#293948"/>
<path d="M13.9226 8.84214C13.2591 8.84214 12.9274 8.46852 12.9274 7.72128V6.47782H12.4451V5.92906H12.9274V5.07674H13.5686V5.92906H14.3279V6.47782H13.5686V7.68042C13.5686 7.86723 13.6046 8.00733 13.6764 8.10074C13.7482 8.19414 13.8645 8.24085 14.0252 8.24085C14.0731 8.24085 14.1227 8.23501 14.174 8.22333C14.2253 8.20777 14.2783 8.1922 14.333 8.17663L14.4305 8.71371C14.369 8.75263 14.2903 8.78377 14.1945 8.80712C14.1022 8.83047 14.0115 8.84214 13.9226 8.84214Z" fill="#293948"/>
<path d="M5.20229 14.6216L3.92487 10.5059H4.60206L5.49984 13.5416L6.4438 10.5059H6.93118L7.85462 13.5825L8.77806 10.5059H9.41933L8.13165 14.6216H7.58784L6.66953 11.6501L5.74609 14.6216H5.20229Z" fill="#293948"/>
<path d="M9.96971 11.1539V10.4417H10.6879V11.1539H9.96971ZM10.0108 14.6216V11.7669H10.652V14.6216H10.0108Z" fill="#293948"/>
<path d="M12.3444 14.68C12.0468 14.68 11.8262 14.5885 11.6826 14.4056C11.5424 14.2188 11.4723 13.9464 11.4723 13.5883V10.5059H12.1135V13.5533C12.1135 13.9036 12.2435 14.0787 12.5034 14.0787C12.5411 14.0787 12.5787 14.0767 12.6163 14.0728C12.6539 14.069 12.6898 14.0612 12.724 14.0495L12.7138 14.6274C12.5907 14.6625 12.4675 14.68 12.3444 14.68Z" fill="#293948"/>
<path d="M14.1366 14.68C13.839 14.68 13.6184 14.5885 13.4748 14.4056C13.3345 14.2188 13.2644 13.9464 13.2644 13.5883V10.5059H13.9057V13.5533C13.9057 13.9036 14.0357 14.0787 14.2956 14.0787C14.3332 14.0787 14.3709 14.0767 14.4085 14.0728C14.4461 14.069 14.482 14.0612 14.5162 14.0495L14.5059 14.6274C14.3828 14.6625 14.2597 14.68 14.1366 14.68Z" fill="#293948"/>
<path d="M4.20703 8.78377V4.66809H4.8637V8.14744H6.59771V8.78377H4.20703Z" stroke="#293948" stroke-width="0.4" mask="url(#path-9-outside-1_1_127)"/>
<path d="M8.00608 8.84214C7.82481 8.84214 7.66235 8.80323 7.51871 8.72539C7.37848 8.64366 7.26733 8.53469 7.18524 8.39847C7.10658 8.26225 7.06725 8.10852 7.06725 7.93728C7.06725 7.72712 7.11513 7.56171 7.21089 7.44106C7.30666 7.31652 7.46227 7.22701 7.67774 7.17252C7.89321 7.11804 8.18222 7.09079 8.54475 7.09079H8.72431V6.9682C8.72431 6.7736 8.68669 6.6335 8.61144 6.54787C8.5362 6.46225 8.40965 6.41944 8.23181 6.41944C8.09158 6.41944 7.94793 6.44474 7.80087 6.49533C7.6538 6.54204 7.50503 6.61598 7.35454 6.71717L7.16985 6.22096C7.25877 6.1509 7.36309 6.09058 7.48279 6.03998C7.60592 5.9855 7.73418 5.94463 7.86756 5.91739C8.00437 5.88625 8.13262 5.87069 8.25233 5.87069C8.61828 5.87069 8.89019 5.96798 9.06803 6.16258C9.24588 6.35328 9.3348 6.65101 9.3348 7.05577V8.78377H8.73457V8.32842C8.67643 8.48798 8.58408 8.61447 8.45754 8.70787C8.33099 8.79739 8.1805 8.84214 8.00608 8.84214ZM8.13946 8.34009C8.30705 8.34009 8.44557 8.27393 8.55501 8.1416C8.66788 8.00928 8.72431 7.84193 8.72431 7.63955V7.51112H8.54988C8.22839 7.51112 8.00437 7.54031 7.87782 7.59869C7.7547 7.65317 7.69313 7.75436 7.69313 7.90225C7.69313 8.03069 7.73247 8.13577 7.81113 8.2175C7.88979 8.29923 7.99924 8.34009 8.13946 8.34009Z" stroke="#293948" stroke-width="0.4" mask="url(#path-9-outside-1_1_127)"/>
<path d="M11.0579 8.84214C10.8459 8.84214 10.6475 8.81296 10.4628 8.75458C10.2781 8.6962 10.1242 8.61252 10.0011 8.50355L10.1653 8.02485C10.2918 8.12214 10.4337 8.19804 10.5911 8.25252C10.7484 8.30312 10.9057 8.32842 11.063 8.32842C11.2272 8.32842 11.3486 8.29728 11.4273 8.23501C11.5094 8.16885 11.5504 8.08323 11.5504 7.97814C11.5504 7.81469 11.4444 7.7096 11.2323 7.6629L10.7193 7.55198C10.285 7.45858 10.0678 7.20171 10.0678 6.78139C10.0678 6.59458 10.1122 6.43306 10.2012 6.29685C10.2935 6.16063 10.4201 6.05555 10.5808 5.9816C10.7416 5.90766 10.9262 5.87069 11.1349 5.87069C11.3127 5.87069 11.4837 5.89987 11.6479 5.95825C11.8121 6.01274 11.9523 6.09642 12.0686 6.20928L11.8941 6.68798C11.795 6.59458 11.6753 6.52063 11.535 6.46615C11.3982 6.41166 11.2665 6.38442 11.14 6.38442C10.9724 6.38442 10.8476 6.4175 10.7655 6.48366C10.6868 6.54982 10.6475 6.63739 10.6475 6.74636C10.6475 6.9176 10.745 7.02269 10.9399 7.0616L11.4529 7.17252C11.6753 7.21923 11.8428 7.30485 11.9557 7.42939C12.072 7.55393 12.1301 7.72128 12.1301 7.93144C12.1301 8.21555 12.0327 8.43933 11.8377 8.60279C11.6428 8.76236 11.3828 8.84214 11.0579 8.84214Z" stroke="#293948" stroke-width="0.4" mask="url(#path-9-outside-1_1_127)"/>
<path d="M13.9226 8.84214C13.2591 8.84214 12.9274 8.46852 12.9274 7.72128V6.47782H12.4451V5.92906H12.9274V5.07674H13.5686V5.92906H14.3279V6.47782H13.5686V7.68042C13.5686 7.86723 13.6046 8.00733 13.6764 8.10074C13.7482 8.19414 13.8645 8.24085 14.0252 8.24085C14.0731 8.24085 14.1227 8.23501 14.174 8.22333C14.2253 8.20777 14.2783 8.1922 14.333 8.17663L14.4305 8.71371C14.369 8.75263 14.2903 8.78377 14.1945 8.80712C14.1022 8.83047 14.0115 8.84214 13.9226 8.84214Z" stroke="#293948" stroke-width="0.4" mask="url(#path-9-outside-1_1_127)"/>
<path d="M5.20229 14.6216L3.92487 10.5059H4.60206L5.49984 13.5416L6.4438 10.5059H6.93118L7.85462 13.5825L8.77806 10.5059H9.41933L8.13165 14.6216H7.58784L6.66953 11.6501L5.74609 14.6216H5.20229Z" stroke="#293948" stroke-width="0.4" mask="url(#path-9-outside-1_1_127)"/>
<path d="M9.96971 11.1539V10.4417H10.6879V11.1539H9.96971ZM10.0108 14.6216V11.7669H10.652V14.6216H10.0108Z" stroke="#293948" stroke-width="0.4" mask="url(#path-9-outside-1_1_127)"/>
<path d="M12.3444 14.68C12.0468 14.68 11.8262 14.5885 11.6826 14.4056C11.5424 14.2188 11.4723 13.9464 11.4723 13.5883V10.5059H12.1135V13.5533C12.1135 13.9036 12.2435 14.0787 12.5034 14.0787C12.5411 14.0787 12.5787 14.0767 12.6163 14.0728C12.6539 14.069 12.6898 14.0612 12.724 14.0495L12.7138 14.6274C12.5907 14.6625 12.4675 14.68 12.3444 14.68Z" stroke="#293948" stroke-width="0.4" mask="url(#path-9-outside-1_1_127)"/>
<path d="M14.1366 14.68C13.839 14.68 13.6184 14.5885 13.4748 14.4056C13.3345 14.2188 13.2644 13.9464 13.2644 13.5883V10.5059H13.9057V13.5533C13.9057 13.9036 14.0357 14.0787 14.2956 14.0787C14.3332 14.0787 14.3709 14.0767 14.4085 14.0728C14.4461 14.069 14.482 14.0612 14.5162 14.0495L14.5059 14.6274C14.3828 14.6625 14.2597 14.68 14.1366 14.68Z" stroke="#293948" stroke-width="0.4" mask="url(#path-9-outside-1_1_127)"/>
</g>
</svg>
