<svg width="38" height="35" viewBox="0 0 38 35" fill="none" xmlns="http://www.w3.org/2000/svg">
<path opacity="0.8" fill-rule="evenodd" clip-rule="evenodd" d="M30.1461 28.18H34.1201C34.3627 28.2425 34.5201 28.4274 34.6452 28.614C34.6718 31.0664 34.3284 32.4102 32.9207 33.3618C32.5324 33.6241 31.9967 33.7512 31.5958 34H10.625C9.65726 33.4158 8.79837 33.2194 8.2005 32.2389C7.30002 30.7619 7.57588 27.8055 7.57565 25.4234C7.57565 24.2308 7.28345 23.2731 8.15053 22.8708C9.02226 23.2404 8.77551 24.0453 8.77541 25.2192V28.7928C8.77541 29.654 8.71755 30.5702 8.97535 31.1667C9.58626 32.5798 11.758 33.4447 13.2245 32.2131C14.1858 31.4059 14.1661 30.1886 14.2493 28.5121C14.4011 28.406 14.5215 28.2364 14.7242 28.18H28.9463C28.938 24.7431 28.9297 21.3057 28.9214 17.8678C27.8666 18.5269 26.6286 18.9992 25.3721 19.4504L23.9224 19.7567L23.4975 20.2417L21.9478 21.7732C21.6681 22.0513 21.4121 22.4313 21.048 22.6156C20.2469 23.021 19.3122 22.5367 19.0234 22.0029C18.6351 21.285 18.9863 20.4243 19.3733 20.0375C19.8383 19.5727 21.8343 17.7618 21.8478 17.1276H14.1493C13.182 17.1276 11.7753 17.413 11.7248 16.4384C12.1419 15.6243 13.2692 15.9022 14.4743 15.9023H22.1977C22.2083 15.4248 22.4744 14.7703 22.6976 14.4474V14.4218H14.1993C13.4285 14.4218 11.464 14.671 11.7248 13.7071C11.9327 12.9387 13.4895 13.1965 14.4243 13.1966H20.973C21.35 13.1966 23.0821 13.2912 23.2475 13.1456C23.5989 12.7698 23.7555 12.1482 24.0973 11.7162V11.6906H14.7743C14.104 11.6906 11.9912 11.8617 11.8499 11.4098C11.7591 11.3407 11.7305 11.2066 11.7249 11.0525C11.7962 10.878 11.8499 10.6841 11.9999 10.593C12.4158 10.3406 14.3677 10.5163 15.0243 10.5164H24.9472C25.0522 10.1687 25.4334 9.90528 25.647 9.64855C26.2798 8.88799 27.0068 8.09719 27.7966 7.50438L28.9463 6.66212C28.9629 4.76199 28.8739 3.59905 27.8716 2.78221C26.7753 1.8888 24.0074 2.2205 22.0977 2.2206H7.60064L7.62562 2.27158C8.65397 2.78476 8.77541 4.88913 8.77541 6.55989V20.4459C8.77541 20.8353 8.84046 21.3707 8.70042 21.6456C8.60789 21.8273 8.34793 21.9437 8.07553 21.9519C7.86132 21.8542 7.6563 21.7451 7.57565 21.518V6.86627H3.10153C2.59506 6.86627 1.67345 7.0192 1.27691 6.81529L1.00195 6.56006C0.983352 4.18159 1.07299 2.94313 2.37669 1.91425C3.828 0.768944 5.96913 1.07182 8.4755 1.07189H21.7977C23.6402 1.07189 26.6459 0.76993 27.9215 1.40372C29.1369 2.00771 29.7271 2.96216 30.0712 4.49235C30.1434 4.81426 30.2242 5.52551 30.1211 5.92178C30.5034 5.82611 30.8484 5.53523 31.1708 5.36021C32.1284 4.8405 35.0094 3.74301 36.1447 4.41575C37.9161 5.46536 36.4748 8.66838 35.9198 9.98036C35.7345 10.4186 35.4593 11.3755 35.0201 11.5374C34.4535 11.7463 34.0462 11.1677 34.2701 10.644C34.7479 9.52662 35.3368 8.40931 35.6949 7.09594C35.8632 6.47911 36.0043 5.77673 35.5701 5.4623C35.2976 5.26518 34.5965 5.42094 34.2951 5.51328C33.2846 5.81823 32.2986 6.20227 31.3458 6.66198C27.5348 8.52778 24.9254 11.6939 23.3974 15.9022C25.6052 13.6478 27.8131 11.393 30.021 9.13803C30.5637 8.58383 31.2368 7.72712 32.2958 8.16805C32.5846 8.28839 32.8575 8.43915 33.0205 8.67858C33.9139 9.98929 32.4296 11.0418 31.8706 11.6396C29.7798 13.7835 27.6886 15.9276 25.597 18.072H25.6968L27.7214 17.2041C29.1558 16.4586 30.4793 15.431 31.5707 14.3198C32.0325 13.8495 33.1335 12.1737 33.8202 12.1756C33.9283 12.2521 34.0367 12.3287 34.1453 12.4053C34.5262 12.9321 33.6286 13.7548 33.4203 14.0134C32.4741 15.1854 31.372 16.2165 30.1461 17.0765V28.18ZM2.10173 5.64103H7.57565C7.64502 1.13177 2.0482 1.07277 2.10173 5.64103ZM13.5245 4.28817C13.8874 4.28382 14.0588 4.44984 14.1993 4.67105C14.2178 5.06188 14.3202 5.76283 14.1743 6.10048C14.0811 6.26945 13.9386 6.33837 13.7994 6.45783C13.3576 6.47248 13.2135 6.30891 13.0495 6.04943C13.0403 5.54362 12.9546 4.73474 13.1995 4.46683L13.5245 4.28817ZM23.9224 4.28817C24.9965 4.27403 24.8041 6.07638 24.1973 6.45783C23.4677 6.47948 23.4474 6.03781 23.4474 5.30913C23.4558 5.09644 23.4641 4.88373 23.4724 4.67098C23.5665 4.46867 23.7618 4.42248 23.9224 4.28817ZM17.3487 5.2071C18.0815 5.1965 18.1522 5.71382 18.7984 5.79417C19.3153 5.85847 20.7022 4.36457 20.723 5.89612C20.0183 7.26033 17.83 7.28225 16.9987 6.02374V5.51341L17.3487 5.2071ZM31.6207 9.24015C30.565 10.217 29.5905 11.2879 28.5963 12.3287C26.6727 14.3428 24.6909 16.3063 22.7476 18.3017C22.0497 19.0183 21.3461 19.7293 20.6481 20.4459C20.4636 20.6353 19.9054 20.9364 20.0483 21.3393C20.1085 21.4863 20.2052 21.5561 20.3982 21.569C20.7852 21.379 21.0125 21.0208 21.298 20.7267C21.9028 20.1036 22.511 19.4825 23.1226 18.8633C25.1928 16.7667 27.1958 14.5688 29.3214 12.5329C30.0191 11.8646 30.6676 11.1525 31.346 10.4654C31.6089 10.1992 32.0344 9.98103 32.096 9.5209C32.0291 9.42733 31.9624 9.33375 31.896 9.24015H31.6208H31.6207ZM22.2979 24.8618L25.5722 24.8874C26.0321 24.8874 26.5916 24.7906 26.8219 25.0405C26.9956 25.229 26.9384 25.4833 26.9218 25.7552L26.5218 26.0615H22.8726C22.2584 26.0615 21.3352 26.0539 21.6478 25.2702C21.7171 25.0917 21.8523 24.9866 21.9977 24.8874L22.2979 24.8618ZM15.3741 29.431C15.3928 30.6208 15.2348 31.4562 14.7992 32.1621C14.6326 32.3748 14.4659 32.5876 14.2993 32.8003H27.1467C28.817 32.8003 31.3066 33.1041 32.2958 32.3408C33.1183 31.706 33.4803 30.9281 33.4703 29.431H15.3741Z" fill="#293948" stroke="#293948" stroke-width="0.45"/>
</svg>
