<svg width="21" height="23" viewBox="0 0 21 23" fill="none" xmlns="http://www.w3.org/2000/svg">
<rect width="21" height="23" fill="#F5F5F5"/>
<g clip-path="url(#clip0_0_1)">
<rect width="1640" height="4774" transform="translate(-1125 -4515)" fill="white"/>
<path d="M515 -184H-1125V199H515V-184Z" fill="#1F2E4D"/>
<path opacity="0.9" d="M2.94737 2.93539C4.83444 1.05589 7.39385 0 10.0626 0C12.7313 0 15.2907 1.05589 17.1778 2.93539C19.0649 4.81488 20.125 7.36403 20.125 10.022C20.125 12.68 19.0649 15.2292 17.1778 17.1087L15.8061 18.46C14.7949 19.4475 13.4832 20.7182 11.87 22.272C11.3851 22.739 10.737 23 10.0626 23C9.38811 23 8.74004 22.739 8.25517 22.272L4.22087 18.3633C3.71239 17.8672 3.28943 17.4494 2.94737 17.1087C2.01294 16.1781 1.27171 15.0733 0.765998 13.8573C0.260287 12.6414 0 11.3382 0 10.022C0 8.70591 0.260287 7.40267 0.765998 6.18674C1.27171 4.97081 2.01294 3.86599 2.94737 2.93539ZM15.9517 4.15544C15.1781 3.3851 14.2599 2.77405 13.2492 2.35718C12.2386 1.9403 11.1555 1.72577 10.0616 1.72582C8.96772 1.72587 7.88458 1.94051 6.874 2.35749C5.86342 2.77446 4.9452 3.3856 4.17175 4.15601C3.39831 4.92643 2.7848 5.84102 2.36625 6.84759C1.94769 7.85415 1.73229 8.93297 1.73235 10.0224C1.7324 11.1119 1.9479 12.1907 2.36656 13.1972C2.78521 14.2038 3.39881 15.1183 4.17233 15.8886L5.89191 17.5783C6.83721 18.5002 8.02751 19.6512 9.46049 21.0313C9.62208 21.1867 9.83794 21.2736 10.0626 21.2736C10.2872 21.2736 10.5031 21.1867 10.6647 21.0313L14.588 17.233C15.1312 16.7024 15.5853 16.2547 15.9517 15.8886C17.5135 14.333 18.3909 12.2231 18.3909 10.0232C18.3909 7.82323 17.5135 5.71338 15.9517 4.15774V4.15544ZM10.0626 6.88444C10.5182 6.88444 10.9693 6.97381 11.3902 7.14745C11.8111 7.3211 12.1935 7.57561 12.5157 7.89646C12.8378 8.21731 13.0934 8.59822 13.2677 9.01744C13.442 9.43665 13.5318 9.88596 13.5318 10.3397C13.5318 10.7935 13.442 11.2428 13.2677 11.662C13.0934 12.0812 12.8378 12.4621 12.5157 12.783C12.1935 13.1038 11.8111 13.3583 11.3902 13.532C10.9693 13.7056 10.5182 13.795 10.0626 13.795C9.1536 13.7785 8.28746 13.4072 7.65051 12.7611C7.01356 12.1151 6.65669 11.2458 6.65669 10.3403C6.65669 9.43481 7.01356 8.56552 7.65051 7.91944C8.28746 7.27335 9.1536 6.90211 10.0626 6.88559V6.88444ZM10.0626 8.61092C9.60222 8.61092 9.16073 8.79306 8.83521 9.11727C8.50969 9.44148 8.32682 9.88121 8.32682 10.3397C8.32682 10.7982 8.50969 11.2379 8.83521 11.5621C9.16073 11.8864 9.60222 12.0685 10.0626 12.0685C10.515 12.0569 10.945 11.8697 11.2609 11.5469C11.5768 11.224 11.7535 10.7911 11.7535 10.3403C11.7535 9.88951 11.5768 9.45656 11.2609 9.13372C10.945 8.81089 10.515 8.6237 10.0626 8.61207V8.61092Z" fill="white"/>
</g>
<defs>
<clipPath id="clip0_0_1">
<rect width="1640" height="4774" fill="white" transform="translate(-1125 -4515)"/>
</clipPath>
</defs>
</svg>
