<svg width="33" height="38" viewBox="0 0 33 38" fill="none" xmlns="http://www.w3.org/2000/svg">
<rect width="33" height="38" fill="#F5F5F5"/>
<g clip-path="url(#clip0_0_1)">
<rect width="1640" height="4774" transform="translate(-648 -1171)" fill="white"/>
<path d="M-648 -185H992V256H-648V-185Z" fill="#F9FBFD"/>
<g style="mix-blend-mode:overlay" opacity="0.4" filter="url(#filter0_f_0_1)">
<ellipse cx="172" cy="-567.5" rx="440" ry="320.5" fill="black"/>
</g>
<g opacity="0.8">
<path d="M0.259376 33.1264C0.550638 33.4756 1.02624 33.6132 1.45672 33.4711L6.19042 31.938L7.55094 36.7246C7.67513 37.1612 8.05216 37.4786 8.50381 37.5271C8.54335 37.5315 8.58344 37.5338 8.62298 37.5338C9.03008 37.5338 9.40989 37.3099 9.60537 36.944L15.3443 26.1924C15.7391 26.228 16.1384 26.2497 16.5416 26.2497C16.844 26.2497 17.1425 26.2358 17.4399 26.2152L23.1666 36.944C23.3621 37.3093 23.7413 37.5338 24.149 37.5338C24.1885 37.5338 24.2286 37.5315 24.2681 37.5271C24.7203 37.4786 25.0968 37.1612 25.221 36.7246L26.581 31.938L31.3152 33.4711C31.7463 33.6132 32.2213 33.4756 32.5126 33.1264C32.8038 32.7784 32.8545 32.2877 32.6407 31.8873L26.9123 21.1552C28.6371 18.9337 29.6668 16.1486 29.6668 13.1252C29.6668 5.88761 23.7792 0 16.5422 0C9.30519 0 3.41703 5.88761 3.41703 13.1257C3.41703 16.0406 4.3738 18.736 5.98771 20.9168L0.131288 31.8873C-0.0825634 32.2877 -0.0318852 32.7784 0.259376 33.1264ZM26.3777 29.5305C26.0887 29.4364 25.7762 29.4642 25.5095 29.6079L25.241 29.7516C24.9743 29.8941 24.7771 30.1386 24.6947 30.4293L23.8332 33.4611L19.7695 25.8477C21.8606 25.3169 23.7524 24.2828 25.309 22.8827L29.3772 30.5023L26.3777 29.5305ZM16.5422 2.22762C22.5506 2.22762 27.4392 7.11614 27.4392 13.1252C27.4392 19.1336 22.5506 24.0216 16.5422 24.0216C10.5337 24.0216 5.64521 19.1336 5.64521 13.1252C5.64465 7.11614 10.5337 2.22762 16.5422 2.22762ZM7.56709 22.6883C9.0958 24.124 10.9664 25.1972 13.0437 25.7725L8.93986 33.4606L8.07777 30.4288C7.99535 30.1386 7.79821 29.8941 7.53256 29.7516L7.26469 29.6079C6.99793 29.4648 6.6844 29.4364 6.39536 29.5299L3.39587 30.5012L7.56709 22.6883Z" fill="#293948"/>
</g>
</g>
<defs>
<filter id="filter0_f_0_1" x="-542" y="-1162" width="1428" height="1189" filterUnits="userSpaceOnUse" color-interpolation-filters="sRGB">
<feFlood flood-opacity="0" result="BackgroundImageFix"/>
<feBlend mode="normal" in="SourceGraphic" in2="BackgroundImageFix" result="shape"/>
<feGaussianBlur stdDeviation="137" result="effect1_foregroundBlur_0_1"/>
</filter>
<clipPath id="clip0_0_1">
<rect width="1640" height="4774" fill="white" transform="translate(-648 -1171)"/>
</clipPath>
</defs>
</svg>
