<svg width="47" height="44" viewBox="0 0 47 44" fill="none" xmlns="http://www.w3.org/2000/svg">
<rect width="47" height="44" fill="#F5F5F5"/>
<g clip-path="url(#clip0_0_1)">
<rect width="1640" height="4774" transform="translate(-913 -1070)" fill="white"/>
<path d="M-913 -84H727V357H-913V-84Z" fill="#F9FBFD"/>
<g style="mix-blend-mode:overlay" opacity="0.4" filter="url(#filter0_f_0_1)">
<ellipse cx="-93" cy="-466.5" rx="440" ry="320.5" fill="black"/>
</g>
<g opacity="0.8">
<mask id="path-3-outside-1_0_1" maskUnits="userSpaceOnUse" x="0" y="0" width="47" height="44" fill="black">
<rect fill="white" width="47" height="44"/>
<path fill-rule="evenodd" clip-rule="evenodd" d="M20.8886 37.5328H1.71219C1.31653 37.5328 1 37.2163 1 36.847C1 26.5598 10.3376 24.5287 12.8699 24.1594L13.0809 19.9654C10.0739 18.1981 8.04279 14.9273 8.04279 11.1817C8.04279 5.64244 12.5533 1 18.2245 1C23.9484 1 28.4062 5.72157 28.4062 11.1817C28.4062 14.9273 26.4015 18.1981 23.3945 19.9654L23.5791 24.1594C24.7134 24.3177 27.1137 24.7925 29.4613 26.1114C31.3869 24.2122 30.8593 24.3441 33.1278 26.0586C33.286 26.0059 33.4179 25.9267 33.5498 25.874L33.8136 23.9484C33.8664 23.5791 34.1829 23.3417 34.5258 23.3417H38.034C38.4033 23.3417 38.6934 23.5791 38.7462 23.9484L39.01 25.874C39.1419 25.9267 39.3001 26.0059 39.432 26.0586L40.9883 24.8716C41.2784 24.6606 41.6741 24.687 41.9115 24.9244L44.4174 27.4302C44.6547 27.6676 44.6811 28.0633 44.4701 28.3535L43.2831 29.9097C43.3623 30.0416 43.415 30.1999 43.4678 30.3318L45.3933 30.5955C45.7626 30.6483 46 30.9385 46 31.3077V34.8159C46 35.1852 45.7626 35.4754 45.3933 35.5281L43.4678 35.7919C43.415 35.9238 43.3623 36.0821 43.2831 36.2139L44.4701 37.7702C44.6811 38.0604 44.6547 38.456 44.4174 38.6934L41.9115 41.1993C41.6741 41.4367 41.2784 41.4631 40.9883 41.252L39.432 40.0651C39.3001 40.1442 39.1419 40.1969 39.01 40.2497L38.7462 42.1753C38.6934 42.5445 38.4033 42.7819 38.034 42.7819H34.5258C34.1565 42.7819 33.8664 42.5445 33.8136 42.1753L33.5498 40.2497C33.4179 40.1969 33.286 40.1178 33.1278 40.0651L31.5715 41.252C31.2814 41.4631 30.8857 41.4367 30.6483 41.1993L28.1688 38.6934C27.7732 38.2978 28.0106 37.9021 28.2743 37.5328H20.8886ZM14.4525 20.6512L14.2679 24.476L18.2245 27.9842L22.1811 24.476L21.9965 20.6512C19.6489 21.6008 16.8001 21.6008 14.4525 20.6512ZM18.2245 2.42438C15.745 2.42438 13.5029 3.45311 11.9203 5.11489C14.6372 5.40504 18.1717 6.11723 21.4162 7.75264C23.2626 8.67585 25.0035 8.93962 26.6125 8.59672C25.5047 5.00938 22.1547 2.42438 18.2245 2.42438ZM10.8652 6.40739C7.14596 12.1313 11.1553 19.9654 18.2245 19.9654C23.5264 19.9654 27.6676 15.1911 26.9291 9.96835C24.8189 10.4431 22.8669 10.0475 20.7831 8.99238C17.354 7.27784 13.5557 6.64478 10.8652 6.40739ZM20.0709 36.1348L19.0686 29.1448C18.8839 29.2767 18.7257 29.4877 18.4883 29.5932C17.8816 29.646 17.9871 29.646 17.3804 29.1448L16.4045 36.1348H20.0709ZM14.9801 36.1348L16.1407 28.0105L13.3183 25.5311C11.5774 25.7157 2.84642 27.0873 2.42438 36.1348H14.9801ZM23.1571 25.5311L20.3347 28.0105L21.4953 36.1348H29.2503C29.1975 36.0293 29.1448 35.8974 29.092 35.7919L27.1665 35.5281C26.8236 35.4754 26.5598 35.1852 26.5598 34.8159V31.3077C26.5598 30.9385 26.8236 30.6483 27.1665 30.5955L29.092 30.3318C29.1448 30.1999 29.2239 30.0416 29.2767 29.9097C27.9578 28.1688 27.5358 28.0633 28.4326 27.1665C26.1905 25.9531 23.9484 25.6102 23.1571 25.5311ZM33.0487 38.5352C33.3388 38.5352 34.051 38.9308 34.3939 39.0363C34.6577 39.1418 34.8423 39.3529 34.8951 39.6166L35.1325 41.3839H37.4273C37.823 38.5879 37.4537 39.5375 39.1946 38.6143C39.432 38.5088 39.7222 38.5352 39.9332 38.6934L41.3576 39.7485L42.993 38.1395C41.2784 35.871 41.6741 36.8206 42.2808 34.9478C42.3599 34.6841 42.5709 34.4994 42.8347 34.473L44.602 34.2093V31.9144C41.806 31.5188 42.7556 31.9144 41.8587 30.1735C41.7268 29.9097 41.7532 29.6196 41.9115 29.4086L42.993 27.9842L41.3576 26.3751C39.0891 28.0633 40.0387 27.6676 38.1659 27.0873C37.9021 27.0082 37.7175 26.7708 37.6911 26.507L37.4273 24.7397H35.1325C34.7368 27.5358 35.1325 26.5862 33.3916 27.5094C33.1542 27.6149 32.864 27.5885 32.6266 27.4302L31.2022 26.3751L29.5932 27.9842C31.2814 30.2526 30.8857 29.303 30.3054 31.1758C30.2263 31.4396 29.9889 31.6243 29.7251 31.677L27.9578 31.9144V34.2093C30.7538 34.6049 29.8042 34.2093 30.7274 35.9502C30.8329 36.2139 30.8329 36.5041 30.6483 36.7151L29.5932 38.1395L31.2022 39.7485C31.5715 39.4848 32.653 38.5352 33.0487 38.5352ZM36.2931 38.0868C33.5234 38.0868 31.255 35.8183 31.255 33.075C31.255 30.3054 33.5234 28.0369 36.2931 28.0369C39.0627 28.0369 41.3048 30.3054 41.3048 33.075C41.3048 35.8183 39.0627 38.0868 36.2931 38.0868ZM36.2931 29.4613C34.2884 29.4613 32.6794 31.0703 32.6794 33.075C32.6794 35.0533 34.2884 36.6624 36.2931 36.6624C38.2714 36.6624 39.9068 35.0533 39.9068 33.075C39.9068 31.0703 38.2714 29.4613 36.2931 29.4613Z"/>
</mask>
<path fill-rule="evenodd" clip-rule="evenodd" d="M20.8886 37.5328H1.71219C1.31653 37.5328 1 37.2163 1 36.847C1 26.5598 10.3376 24.5287 12.8699 24.1594L13.0809 19.9654C10.0739 18.1981 8.04279 14.9273 8.04279 11.1817C8.04279 5.64244 12.5533 1 18.2245 1C23.9484 1 28.4062 5.72157 28.4062 11.1817C28.4062 14.9273 26.4015 18.1981 23.3945 19.9654L23.5791 24.1594C24.7134 24.3177 27.1137 24.7925 29.4613 26.1114C31.3869 24.2122 30.8593 24.3441 33.1278 26.0586C33.286 26.0059 33.4179 25.9267 33.5498 25.874L33.8136 23.9484C33.8664 23.5791 34.1829 23.3417 34.5258 23.3417H38.034C38.4033 23.3417 38.6934 23.5791 38.7462 23.9484L39.01 25.874C39.1419 25.9267 39.3001 26.0059 39.432 26.0586L40.9883 24.8716C41.2784 24.6606 41.6741 24.687 41.9115 24.9244L44.4174 27.4302C44.6547 27.6676 44.6811 28.0633 44.4701 28.3535L43.2831 29.9097C43.3623 30.0416 43.415 30.1999 43.4678 30.3318L45.3933 30.5955C45.7626 30.6483 46 30.9385 46 31.3077V34.8159C46 35.1852 45.7626 35.4754 45.3933 35.5281L43.4678 35.7919C43.415 35.9238 43.3623 36.0821 43.2831 36.2139L44.4701 37.7702C44.6811 38.0604 44.6547 38.456 44.4174 38.6934L41.9115 41.1993C41.6741 41.4367 41.2784 41.4631 40.9883 41.252L39.432 40.0651C39.3001 40.1442 39.1419 40.1969 39.01 40.2497L38.7462 42.1753C38.6934 42.5445 38.4033 42.7819 38.034 42.7819H34.5258C34.1565 42.7819 33.8664 42.5445 33.8136 42.1753L33.5498 40.2497C33.4179 40.1969 33.286 40.1178 33.1278 40.0651L31.5715 41.252C31.2814 41.4631 30.8857 41.4367 30.6483 41.1993L28.1688 38.6934C27.7732 38.2978 28.0106 37.9021 28.2743 37.5328H20.8886ZM14.4525 20.6512L14.2679 24.476L18.2245 27.9842L22.1811 24.476L21.9965 20.6512C19.6489 21.6008 16.8001 21.6008 14.4525 20.6512ZM18.2245 2.42438C15.745 2.42438 13.5029 3.45311 11.9203 5.11489C14.6372 5.40504 18.1717 6.11723 21.4162 7.75264C23.2626 8.67585 25.0035 8.93962 26.6125 8.59672C25.5047 5.00938 22.1547 2.42438 18.2245 2.42438ZM10.8652 6.40739C7.14596 12.1313 11.1553 19.9654 18.2245 19.9654C23.5264 19.9654 27.6676 15.1911 26.9291 9.96835C24.8189 10.4431 22.8669 10.0475 20.7831 8.99238C17.354 7.27784 13.5557 6.64478 10.8652 6.40739ZM20.0709 36.1348L19.0686 29.1448C18.8839 29.2767 18.7257 29.4877 18.4883 29.5932C17.8816 29.646 17.9871 29.646 17.3804 29.1448L16.4045 36.1348H20.0709ZM14.9801 36.1348L16.1407 28.0105L13.3183 25.5311C11.5774 25.7157 2.84642 27.0873 2.42438 36.1348H14.9801ZM23.1571 25.5311L20.3347 28.0105L21.4953 36.1348H29.2503C29.1975 36.0293 29.1448 35.8974 29.092 35.7919L27.1665 35.5281C26.8236 35.4754 26.5598 35.1852 26.5598 34.8159V31.3077C26.5598 30.9385 26.8236 30.6483 27.1665 30.5955L29.092 30.3318C29.1448 30.1999 29.2239 30.0416 29.2767 29.9097C27.9578 28.1688 27.5358 28.0633 28.4326 27.1665C26.1905 25.9531 23.9484 25.6102 23.1571 25.5311ZM33.0487 38.5352C33.3388 38.5352 34.051 38.9308 34.3939 39.0363C34.6577 39.1418 34.8423 39.3529 34.8951 39.6166L35.1325 41.3839H37.4273C37.823 38.5879 37.4537 39.5375 39.1946 38.6143C39.432 38.5088 39.7222 38.5352 39.9332 38.6934L41.3576 39.7485L42.993 38.1395C41.2784 35.871 41.6741 36.8206 42.2808 34.9478C42.3599 34.6841 42.5709 34.4994 42.8347 34.473L44.602 34.2093V31.9144C41.806 31.5188 42.7556 31.9144 41.8587 30.1735C41.7268 29.9097 41.7532 29.6196 41.9115 29.4086L42.993 27.9842L41.3576 26.3751C39.0891 28.0633 40.0387 27.6676 38.1659 27.0873C37.9021 27.0082 37.7175 26.7708 37.6911 26.507L37.4273 24.7397H35.1325C34.7368 27.5358 35.1325 26.5862 33.3916 27.5094C33.1542 27.6149 32.864 27.5885 32.6266 27.4302L31.2022 26.3751L29.5932 27.9842C31.2814 30.2526 30.8857 29.303 30.3054 31.1758C30.2263 31.4396 29.9889 31.6243 29.7251 31.677L27.9578 31.9144V34.2093C30.7538 34.6049 29.8042 34.2093 30.7274 35.9502C30.8329 36.2139 30.8329 36.5041 30.6483 36.7151L29.5932 38.1395L31.2022 39.7485C31.5715 39.4848 32.653 38.5352 33.0487 38.5352ZM36.2931 38.0868C33.5234 38.0868 31.255 35.8183 31.255 33.075C31.255 30.3054 33.5234 28.0369 36.2931 28.0369C39.0627 28.0369 41.3048 30.3054 41.3048 33.075C41.3048 35.8183 39.0627 38.0868 36.2931 38.0868ZM36.2931 29.4613C34.2884 29.4613 32.6794 31.0703 32.6794 33.075C32.6794 35.0533 34.2884 36.6624 36.2931 36.6624C38.2714 36.6624 39.9068 35.0533 39.9068 33.075C39.9068 31.0703 38.2714 29.4613 36.2931 29.4613Z" fill="#293948"/>
<path fill-rule="evenodd" clip-rule="evenodd" d="M20.8886 37.5328H1.71219C1.31653 37.5328 1 37.2163 1 36.847C1 26.5598 10.3376 24.5287 12.8699 24.1594L13.0809 19.9654C10.0739 18.1981 8.04279 14.9273 8.04279 11.1817C8.04279 5.64244 12.5533 1 18.2245 1C23.9484 1 28.4062 5.72157 28.4062 11.1817C28.4062 14.9273 26.4015 18.1981 23.3945 19.9654L23.5791 24.1594C24.7134 24.3177 27.1137 24.7925 29.4613 26.1114C31.3869 24.2122 30.8593 24.3441 33.1278 26.0586C33.286 26.0059 33.4179 25.9267 33.5498 25.874L33.8136 23.9484C33.8664 23.5791 34.1829 23.3417 34.5258 23.3417H38.034C38.4033 23.3417 38.6934 23.5791 38.7462 23.9484L39.01 25.874C39.1419 25.9267 39.3001 26.0059 39.432 26.0586L40.9883 24.8716C41.2784 24.6606 41.6741 24.687 41.9115 24.9244L44.4174 27.4302C44.6547 27.6676 44.6811 28.0633 44.4701 28.3535L43.2831 29.9097C43.3623 30.0416 43.415 30.1999 43.4678 30.3318L45.3933 30.5955C45.7626 30.6483 46 30.9385 46 31.3077V34.8159C46 35.1852 45.7626 35.4754 45.3933 35.5281L43.4678 35.7919C43.415 35.9238 43.3623 36.0821 43.2831 36.2139L44.4701 37.7702C44.6811 38.0604 44.6547 38.456 44.4174 38.6934L41.9115 41.1993C41.6741 41.4367 41.2784 41.4631 40.9883 41.252L39.432 40.0651C39.3001 40.1442 39.1419 40.1969 39.01 40.2497L38.7462 42.1753C38.6934 42.5445 38.4033 42.7819 38.034 42.7819H34.5258C34.1565 42.7819 33.8664 42.5445 33.8136 42.1753L33.5498 40.2497C33.4179 40.1969 33.286 40.1178 33.1278 40.0651L31.5715 41.252C31.2814 41.4631 30.8857 41.4367 30.6483 41.1993L28.1688 38.6934C27.7732 38.2978 28.0106 37.9021 28.2743 37.5328H20.8886ZM14.4525 20.6512L14.2679 24.476L18.2245 27.9842L22.1811 24.476L21.9965 20.6512C19.6489 21.6008 16.8001 21.6008 14.4525 20.6512ZM18.2245 2.42438C15.745 2.42438 13.5029 3.45311 11.9203 5.11489C14.6372 5.40504 18.1717 6.11723 21.4162 7.75264C23.2626 8.67585 25.0035 8.93962 26.6125 8.59672C25.5047 5.00938 22.1547 2.42438 18.2245 2.42438ZM10.8652 6.40739C7.14596 12.1313 11.1553 19.9654 18.2245 19.9654C23.5264 19.9654 27.6676 15.1911 26.9291 9.96835C24.8189 10.4431 22.8669 10.0475 20.7831 8.99238C17.354 7.27784 13.5557 6.64478 10.8652 6.40739ZM20.0709 36.1348L19.0686 29.1448C18.8839 29.2767 18.7257 29.4877 18.4883 29.5932C17.8816 29.646 17.9871 29.646 17.3804 29.1448L16.4045 36.1348H20.0709ZM14.9801 36.1348L16.1407 28.0105L13.3183 25.5311C11.5774 25.7157 2.84642 27.0873 2.42438 36.1348H14.9801ZM23.1571 25.5311L20.3347 28.0105L21.4953 36.1348H29.2503C29.1975 36.0293 29.1448 35.8974 29.092 35.7919L27.1665 35.5281C26.8236 35.4754 26.5598 35.1852 26.5598 34.8159V31.3077C26.5598 30.9385 26.8236 30.6483 27.1665 30.5955L29.092 30.3318C29.1448 30.1999 29.2239 30.0416 29.2767 29.9097C27.9578 28.1688 27.5358 28.0633 28.4326 27.1665C26.1905 25.9531 23.9484 25.6102 23.1571 25.5311ZM33.0487 38.5352C33.3388 38.5352 34.051 38.9308 34.3939 39.0363C34.6577 39.1418 34.8423 39.3529 34.8951 39.6166L35.1325 41.3839H37.4273C37.823 38.5879 37.4537 39.5375 39.1946 38.6143C39.432 38.5088 39.7222 38.5352 39.9332 38.6934L41.3576 39.7485L42.993 38.1395C41.2784 35.871 41.6741 36.8206 42.2808 34.9478C42.3599 34.6841 42.5709 34.4994 42.8347 34.473L44.602 34.2093V31.9144C41.806 31.5188 42.7556 31.9144 41.8587 30.1735C41.7268 29.9097 41.7532 29.6196 41.9115 29.4086L42.993 27.9842L41.3576 26.3751C39.0891 28.0633 40.0387 27.6676 38.1659 27.0873C37.9021 27.0082 37.7175 26.7708 37.6911 26.507L37.4273 24.7397H35.1325C34.7368 27.5358 35.1325 26.5862 33.3916 27.5094C33.1542 27.6149 32.864 27.5885 32.6266 27.4302L31.2022 26.3751L29.5932 27.9842C31.2814 30.2526 30.8857 29.303 30.3054 31.1758C30.2263 31.4396 29.9889 31.6243 29.7251 31.677L27.9578 31.9144V34.2093C30.7538 34.6049 29.8042 34.2093 30.7274 35.9502C30.8329 36.2139 30.8329 36.5041 30.6483 36.7151L29.5932 38.1395L31.2022 39.7485C31.5715 39.4848 32.653 38.5352 33.0487 38.5352ZM36.2931 38.0868C33.5234 38.0868 31.255 35.8183 31.255 33.075C31.255 30.3054 33.5234 28.0369 36.2931 28.0369C39.0627 28.0369 41.3048 30.3054 41.3048 33.075C41.3048 35.8183 39.0627 38.0868 36.2931 38.0868ZM36.2931 29.4613C34.2884 29.4613 32.6794 31.0703 32.6794 33.075C32.6794 35.0533 34.2884 36.6624 36.2931 36.6624C38.2714 36.6624 39.9068 35.0533 39.9068 33.075C39.9068 31.0703 38.2714 29.4613 36.2931 29.4613Z" stroke="#293948" stroke-width="0.5" mask="url(#path-3-outside-1_0_1)"/>
</g>
</g>
<defs>
<filter id="filter0_f_0_1" x="-807" y="-1061" width="1428" height="1189" filterUnits="userSpaceOnUse" color-interpolation-filters="sRGB">
<feFlood flood-opacity="0" result="BackgroundImageFix"/>
<feBlend mode="normal" in="SourceGraphic" in2="BackgroundImageFix" result="shape"/>
<feGaussianBlur stdDeviation="137" result="effect1_foregroundBlur_0_1"/>
</filter>
<clipPath id="clip0_0_1">
<rect width="1640" height="4774" fill="white" transform="translate(-913 -1070)"/>
</clipPath>
</defs>
</svg>
