<svg width="30" height="45" viewBox="0 0 30 45" fill="none" xmlns="http://www.w3.org/2000/svg">
<g opacity="0.8">
<path d="M20.4076 13.9242C20.3492 13.7404 20.1382 13.6236 19.9182 13.6523L18.6947 13.8189C18.6722 13.8227 18.652 13.8265 18.6318 13.8323C17.6373 13.8265 16.2365 13.4877 15.2599 11.8776C14.0746 9.92107 13.8995 7.66202 13.8748 6.92304L14.7952 6.62247C14.2901 6.53249 13.7895 6.42337 13.2866 6.31616H13.2776C13.1115 6.3736 13.0015 6.50761 12.997 6.65885C12.9948 6.78137 12.9454 9.67985 14.4832 12.2165C15.5652 14.0027 17.13 14.487 18.3377 14.554C18.3332 15.6491 17.112 17.8775 14.0701 19.3095C11.9599 20.3031 11.9509 21.9419 11.4502 23.0446C11.3694 23.2246 11.4615 23.4275 11.6658 23.5117C11.7286 23.5366 11.7937 23.55 11.8566 23.55C12.0047 23.55 12.1484 23.4849 12.2292 23.3701L12.5705 22.8895C12.6086 22.8359 12.6288 22.7785 12.6333 22.7211C13.2215 21.984 12.9701 20.6764 14.4899 19.9604C17.9583 18.3255 19.1931 15.6682 19.2043 14.5368C19.761 14.4832 20.127 14.3702 20.1382 14.3664C20.347 14.2994 20.4615 14.1061 20.4053 13.9223L20.4076 13.9242Z" fill="#293948" stroke="#293948" stroke-width="1.25" stroke-miterlimit="10"/>
<path d="M11.1314 23.2913C11.0192 23.3104 10.9069 23.3296 10.7969 23.3506C8.06259 23.8618 5.57519 25.1713 3.7972 27.034C1.99451 28.9236 1 31.309 1 33.7499C1 36.1908 1.889 38.3523 3.57271 40.2246C3.60189 40.2571 3.63781 40.2858 3.67822 40.3088L4.39435 40.7051C4.47966 40.4658 4.65926 40.2552 4.93763 40.1365L4.20802 39.7326C2.66799 38 1.85532 35.9324 1.85532 33.7518C1.85532 29.1284 5.69193 25.0564 10.9788 24.0666C11.3829 23.9901 13.1653 23.7776 13.5784 23.7393C13.8052 23.7182 13.9713 23.5497 13.9601 23.3564C13.9488 23.163 13.7603 23.0118 13.5335 23.0118L11.9935 23.1668L11.1314 23.2951V23.2913Z" fill="#293948" stroke="#293948" stroke-width="1.25" stroke-miterlimit="10"/>
<path d="M10.1032 43.9965C7.76174 43.9965 5.98599 43.4949 4.82311 42.5071C3.50308 41.3871 3.48737 40.0547 3.48737 39.9991C3.48737 39.8651 3.57267 39.7426 3.70962 39.6794C3.84656 39.6162 4.01268 39.6201 4.14513 39.6928C6.45294 40.9487 9.01891 40.9257 9.61157 40.9028C14.7907 37.204 19.2379 34.7114 21.1371 33.6987C20.183 30.5437 19.3905 27.4193 19.853 24.0058C19.8799 23.8048 20.091 23.6632 20.3267 23.6861C20.5624 23.7091 20.7308 23.891 20.7016 24.0901C20.3042 27.023 20.8318 29.7224 21.9004 33.2986C22.0373 33.2277 22.1114 33.1914 22.1182 33.1894C22.3202 33.0899 22.5806 33.1473 22.7018 33.3196C22.8208 33.4919 22.7557 33.714 22.5559 33.8174L21.9341 34.1371C20.2997 34.9967 15.5943 37.5754 10.0561 41.5403C9.98872 41.5881 9.9079 41.6168 9.8226 41.6245C9.70137 41.6341 7.11071 41.8274 4.49535 40.7037C4.85229 41.6647 6.05558 43.2709 10.1055 43.2709C10.1234 43.2709 10.1436 43.2709 10.1616 43.2709C15.0533 43.2537 25.2252 36.49 26.4352 35.6744C27.6879 30.649 27.6923 26.9483 26.8685 23.1673C26.8258 22.9701 26.9785 22.7787 27.2119 22.7423C27.4432 22.7059 27.6677 22.8361 27.7103 23.0333C28.5858 27.046 28.5634 30.783 27.2411 35.9558C27.2209 36.0362 27.167 36.1109 27.0907 36.1626C26.626 36.4823 15.646 43.9812 10.1661 44.0003C10.1459 44.0003 10.1257 44.0003 10.1055 44.0003L10.1032 43.9965Z" fill="#293948" stroke="#293948" stroke-width="1.25" stroke-miterlimit="10"/>
<path d="M13.5538 5.93323C13.5538 5.93323 16.3914 7.56626 21.9229 7.20251C21.9229 7.20251 24.7066 11.801 21.6288 15.0939C19.449 17.4276 22.9264 22.7134 28.1279 23.0063C28.1279 23.0063 28.0134 17.3644 28.2806 14.7512C28.4714 12.8884 29.5647 6.95172 27.331 4.39019C25.0973 1.82866 22.437 0.806341 18.0773 1.66784C15.8099 2.11582 13.2776 3.94221 13.5538 5.93132V5.93323Z" stroke="#293948" stroke-width="1.25" stroke-linecap="round" stroke-linejoin="round"/>
<path d="M28.1279 23.3718C28.1279 23.3718 28.11 23.3718 28.0987 23.3718C24.7358 23.1823 22.1699 21.0515 21.1192 19.0222C20.2908 17.4236 20.3559 15.871 21.2921 14.8678C23.7952 12.1895 22.1362 8.50422 21.658 7.58528C16.2365 7.88011 13.4303 6.30452 13.3113 6.2356C13.208 6.17625 13.1407 6.08244 13.125 5.97523C12.8242 3.81956 15.3924 1.82471 17.9763 1.31355C22.2821 0.463535 25.1826 1.31738 27.67 4.17374C29.7421 6.55148 29.1067 11.5692 28.7992 13.9815C28.7588 14.2973 28.7251 14.5673 28.7026 14.7836C28.44 17.3471 28.55 22.943 28.5522 23.0004C28.5522 23.1019 28.5073 23.2014 28.4198 23.2704C28.339 23.3354 28.2334 23.3718 28.1257 23.3718H28.1279ZM21.9229 6.83865C22.0823 6.83865 22.2282 6.91331 22.3023 7.03584C22.4213 7.23302 25.1758 11.8832 21.9633 15.3235C21.2292 16.1103 21.2068 17.3815 21.9027 18.7274C22.8007 20.4599 24.9154 22.2748 27.6924 22.6041C27.6722 21.2506 27.6251 16.9431 27.8541 14.7223C27.8765 14.5022 27.9124 14.2246 27.9528 13.9049C28.2469 11.5846 28.8598 6.75824 26.9875 4.61023C24.7021 1.98935 22.1474 1.2408 18.1739 2.02572C16.0681 2.44116 13.8883 4.03781 13.9623 5.71678C14.6403 6.03841 17.3342 7.13922 21.8915 6.84056C21.9027 6.84056 21.9139 6.84056 21.9252 6.84056L21.9229 6.83865Z" fill="#293948" stroke="#293948" stroke-width="1.25" stroke-miterlimit="10"/>
<path d="M9.49935 35.9975C9.71486 36.1813 10.0673 36.1813 10.2828 35.9975L13.7715 33.0225C14.8131 32.1342 14.8131 30.6907 13.7715 29.8043C13.2664 29.3735 12.5974 29.1381 11.8835 29.1381C11.1696 29.1381 10.5006 29.3755 9.99548 29.8043L9.88997 29.8943L9.78446 29.8043C8.74505 28.916 7.05012 28.916 6.01071 29.8043C4.96681 30.6945 4.96681 32.1342 6.01071 33.0225L9.49935 35.9975Z" fill="#293948"/>
</g>
</svg>
