<svg width="46" height="42" viewBox="0 0 46 42" fill="none" xmlns="http://www.w3.org/2000/svg">
<rect width="46" height="42" fill="#F5F5F5"/>
<g clip-path="url(#clip0_0_1)">
<rect width="1640" height="4774" transform="translate(-1187 -1070)" fill="white"/>
<path d="M-1187 -84H453V357H-1187V-84Z" fill="#F9FBFD"/>
<g style="mix-blend-mode:overlay" opacity="0.4" filter="url(#filter0_f_0_1)">
<ellipse cx="-367" cy="-466.5" rx="440" ry="320.5" fill="black"/>
</g>
<g opacity="0.8">
<path d="M36.932 33.2678L36.9321 33.2677L43.8017 26.2272L42.0027 12.8354L42.0026 12.8345C42.0008 12.8205 41.9995 12.8072 41.9985 12.7963L41.9983 12.7938L41.9983 12.7938C41.9406 12.0606 41.63 11.566 41.1636 11.3468L41.1636 11.3468C40.7687 11.1613 40.3062 11.2009 39.957 11.4471L39.957 11.4472C39.5372 11.743 39.3152 12.305 39.3904 13.0838L40.1656 21.11C40.2061 21.5282 39.9 21.9 39.4817 21.9404C39.0624 21.9811 38.6917 21.6742 38.6513 21.2563L36.932 33.2678ZM36.932 33.2678C36.4176 33.7957 35.7904 34.5756 35.8431 35.683L36.932 33.2678ZM36.639 36.4067L36.6386 36.4067C36.6272 36.4072 36.615 36.4075 36.6026 36.4075C36.1989 36.4075 35.8625 36.0905 35.8431 35.6831L36.639 36.4067ZM36.639 36.4067C37.0586 36.3866 37.3828 36.0302 37.3627 35.6105C37.3444 35.2267 37.5137 34.8506 38.0212 34.3298L36.639 36.4067ZM37.876 13.2301L38.6513 21.2563L38.0212 34.3297L45.1492 27.0245C45.1493 27.0244 45.1493 27.0244 45.1493 27.0244C45.3128 26.857 45.3898 26.6236 45.3588 26.392L45.3588 26.392L43.5131 12.6526C43.4102 11.423 42.7994 10.4344 41.8104 9.96979L41.8104 9.96977C40.923 9.55307 39.8772 9.64181 39.0803 10.2035L39.1955 10.367L39.0803 10.2035C38.1782 10.8394 37.7527 11.9541 37.876 13.2301C37.876 13.2301 37.876 13.2301 37.876 13.2301Z" fill="#293948" stroke="#293948" stroke-width="0.4"/>
<path d="M39.4291 24.1597L39.4291 24.1597C40.0777 23.5226 40.0132 22.774 39.6857 22.3133C39.5515 22.1245 39.3568 21.9637 39.1196 21.8895C38.8866 21.8166 38.5963 21.8219 38.2544 21.991L38.2543 21.991C36.8607 22.6801 34.5753 24.609 32.5522 26.5969C31.5443 27.5872 30.6084 28.5853 29.8892 29.4403C29.5295 29.8679 29.2256 30.2577 28.9945 30.5915C28.7715 30.9135 28.6243 31.1721 28.5558 31.3567C28.5529 31.4598 28.5618 31.714 28.6134 32.2976C28.6694 32.9322 28.7746 33.9454 28.9648 35.5576L39.4291 24.1597ZM39.4291 24.1597L35.1851 28.3313C34.8856 28.6257 34.8813 29.1074 35.1758 29.4071C35.4704 29.7067 35.9521 29.7109 36.2517 29.4163L40.4954 25.245C41.7614 24.0014 41.6112 22.396 40.9259 21.4318C40.284 20.5288 38.9943 19.9275 37.5799 20.6273C36.0733 21.3723 33.616 23.4279 31.4669 25.5394C30.3889 26.5986 29.3814 27.6787 28.6018 28.6259C28.2121 29.0994 27.8776 29.5419 27.6192 29.9334C27.3629 30.3218 27.1739 30.6715 27.085 30.9577C27.0437 31.0905 27.0137 31.2236 27.0526 31.8438C27.0915 32.4642 27.2014 33.5945 27.454 35.7359C27.4996 36.123 27.8282 36.4076 28.2087 36.4076M39.4291 24.1597L28.2087 36.4076M28.2087 36.4076C28.2387 36.4076 28.2687 36.4058 28.2986 36.4022M28.2087 36.4076L28.2986 36.4022M28.2986 36.4022C28.7159 36.3531 29.0141 35.9748 28.9648 35.5577L28.2986 36.4022Z" fill="#293948" stroke="#293948" stroke-width="0.4"/>
<path d="M26.3519 41.1284H38.7201C39.1402 41.1284 39.4808 40.7878 39.4808 40.3677V35.6467C39.4808 35.2264 39.1402 34.886 38.7201 34.886H26.3519C25.9318 34.886 25.5912 35.2265 25.5912 35.6467V40.3677C25.5912 40.7878 25.9318 41.1284 26.3519 41.1284ZM37.9594 36.4073V39.6069H27.1126V36.4073H37.9594Z" fill="#293948" stroke="#293948" stroke-width="0.4"/>
<path d="M28.7166 39.3184L28.7166 39.3184L28.7161 39.3184L28.7145 39.3184L28.7105 39.3182L28.7097 39.3181C28.2999 39.3036 27.9498 38.9622 27.9611 38.5374L27.9892 37.4826C28.0005 37.0606 28.3535 36.7352 28.7679 36.7424L28.7698 36.7424L28.7698 36.7424C29.1898 36.7536 29.5213 37.103 29.51 37.5231C29.51 37.5231 29.51 37.5232 29.51 37.5232L29.482 38.5779L29.482 38.5779L29.2821 38.5726C29.2759 38.8075 29.126 39.0049 28.9187 39.0828L28.7166 39.3184ZM28.7166 39.3184H28.7178M28.7166 39.3184H28.7178M28.7178 39.3184L28.7178 39.3184L28.7199 39.3185L28.722 39.3185L28.7237 39.3185L28.7254 39.3185L28.7283 39.3184L28.7178 39.3184ZM28.5285 39.1635C28.5277 39.1532 28.5279 39.1417 28.5291 39.1296C28.5336 39.1567 28.5415 39.185 28.5507 39.2089C28.5415 39.1935 28.5335 39.1777 28.5285 39.1635ZM28.9152 39.1639C28.9101 39.1782 28.9019 39.1942 28.8925 39.2097C28.9019 39.1856 28.9101 39.1569 28.9147 39.1295C28.9159 39.1418 28.9161 39.1535 28.9152 39.1639Z" fill="#293948" stroke="#293948" stroke-width="0.4"/>
<path d="M9.52639 36.4067L9.52704 36.4067C9.5391 36.4072 9.55114 36.4075 9.56314 36.4075C9.96671 36.4075 10.303 36.0904 10.3225 35.683L10.3225 35.683C10.3752 34.5756 9.74829 33.7956 9.23351 33.2675L9.23344 33.2674L2.36393 26.2271L4.16291 12.8353L4.16302 12.8345C4.16468 12.8217 4.16619 12.8081 4.16732 12.7938L4.16733 12.7937C4.22501 12.0605 4.5356 11.566 5.00207 11.3468C5.39695 11.1615 5.85946 11.201 6.20865 11.4471L6.20866 11.4471C6.62856 11.743 6.85047 12.305 6.77524 13.0838L5.99999 21.1099C5.95948 21.5282 6.26583 21.8999 6.68397 21.9403L6.68432 21.9403C7.101 21.9798 7.47374 21.675 7.51429 21.2563L7.51429 21.2563L8.28965 13.2301C8.28965 13.2301 8.28965 13.2301 8.28965 13.2301C8.41294 11.9541 7.98735 10.8394 7.08525 10.2035L7.08525 10.2035C6.28843 9.64194 5.24269 9.55283 4.35527 9.96977C3.36623 10.4343 2.75546 11.4229 2.65238 12.6525L0.80677 26.392L0.806768 26.392C0.775668 26.6236 0.85279 26.8569 1.01617 27.0244L1.0162 27.0245L8.14419 34.3296C8.65179 34.8504 8.82112 35.2265 8.80279 35.6105C8.78274 36.0302 9.10674 36.3866 9.52639 36.4067Z" fill="#293948" stroke="#293948" stroke-width="0.4"/>
<path d="M6.73646 24.1596L6.73651 24.1597L10.9807 28.3313L10.9807 28.3313C11.2802 28.6258 11.2846 29.1074 10.9899 29.4071C10.6954 29.707 10.2138 29.7108 9.91413 29.4163L5.67031 25.245C5.6703 25.245 5.67028 25.245 5.67027 25.245C4.40444 24.0015 4.55466 22.3961 5.23999 21.432L6.73646 24.1596ZM6.73646 24.1596C6.08811 23.5228 6.15257 22.7742 6.48004 22.3133L6.73646 24.1596ZM18.7119 35.736L18.7119 35.7361C18.6661 36.123 18.3375 36.4076 17.957 36.4076C17.9271 36.4076 17.8971 36.4058 17.8672 36.4023C17.8671 36.4023 17.8671 36.4023 17.867 36.4023L18.7119 35.736ZM18.7119 35.736C18.9646 33.5949 19.0745 32.4646 19.1134 31.8443C19.1524 31.2242 19.1225 31.091 19.0812 30.9584C18.9923 30.6721 18.8032 30.3224 18.5468 29.9338C18.2885 29.5423 17.9539 29.0998 17.5642 28.6262C16.7845 27.6789 15.777 26.5987 14.699 25.5396C12.5498 23.428 10.0926 21.3723 8.58608 20.6274C7.17133 19.9277 5.8818 20.5288 5.24001 21.4319L18.7119 35.736ZM17.2008 35.5577L17.2008 35.5577L6.48007 22.3133C6.61426 22.1245 6.80899 21.9637 7.04623 21.8895C7.27924 21.8166 7.56954 21.8219 7.91151 21.9911L7.91155 21.9911C9.30501 22.6801 11.5901 24.6087 13.6132 26.5965C14.6211 27.5868 15.5569 28.5849 16.2762 29.4399C16.6359 29.8675 16.9398 30.2574 17.171 30.5912C17.3941 30.9134 17.5414 31.1721 17.61 31.3568C17.613 31.46 17.604 31.7143 17.5524 32.2981C17.4964 32.9327 17.391 33.9459 17.2008 35.5577Z" fill="#293948" stroke="#293948" stroke-width="0.4"/>
<path d="M7.44575 41.1284H19.8139C20.234 41.1284 20.5746 40.7878 20.5746 40.3677V35.6467C20.5746 35.2265 20.234 34.886 19.8139 34.886H7.44575C7.02556 34.886 6.68507 35.2265 6.68507 35.6467V40.3677C6.68507 40.7877 7.02554 41.1284 7.44575 41.1284ZM19.0532 36.4073V39.6069H8.20642V36.4073H19.0532Z" fill="#293948" stroke="#293948" stroke-width="0.4"/>
<path d="M17.4375 39.3184C17.0295 39.315 16.6946 38.9889 16.6838 38.5779L17.4375 39.3184ZM17.4375 39.3184L17.4406 39.3185L17.4422 39.3185L17.4439 39.3185L17.4461 39.3185L17.4482 39.3184L17.45 39.3184L17.4519 39.3184L17.4565 39.3181L17.4566 39.3181C17.8665 39.3033 18.2158 38.9619 18.2047 38.5375L18.2047 38.5375L18.1767 37.4826L18.1767 37.4826C18.1654 37.0607 17.812 36.7348 17.3977 36.7424L17.3977 36.7424L17.396 36.7424C16.9761 36.7536 16.6446 37.103 16.6557 37.5231C16.6557 37.5231 16.6557 37.5231 16.6557 37.5231L16.6838 38.5779L17.4375 39.3184ZM17.254 39.0853C17.253 39.085 17.252 39.0846 17.2509 39.0842C17.2489 39.0906 17.2473 39.0967 17.2461 39.1026C17.2469 39.1184 17.2507 39.1366 17.2561 39.1552C17.2535 39.1323 17.2527 39.1078 17.254 39.0853ZM17.3088 39.2645C17.3074 39.263 17.3061 39.2613 17.3047 39.2595C17.3089 39.2636 17.3132 39.2675 17.3173 39.2712C17.3142 39.2689 17.3113 39.2666 17.3088 39.2645ZM17.4493 39.3184C17.4482 39.3184 17.4475 39.3184 17.4481 39.3184L17.444 39.1184L17.4493 39.3184ZM17.6219 39.2069C17.616 39.2168 17.6078 39.2277 17.599 39.2383C17.6089 39.2227 17.619 39.2041 17.6274 39.1853C17.6259 39.1932 17.6241 39.2005 17.6219 39.2069Z" fill="#293948" stroke="#293948" stroke-width="0.4"/>
<path d="M15.9938 21.2377L15.8479 21.3745C17.7298 23.3819 20.1825 25.0133 22.5836 25.85C22.6648 25.8784 22.7495 25.8925 22.8341 25.8925C22.9186 25.8925 23.0034 25.8784 23.0847 25.85M15.9938 21.2377L23.0845 25.8501C23.0846 25.85 23.0846 25.85 23.0847 25.85M15.9938 21.2377L15.8479 21.3745C14.3266 19.7515 12.4852 17.1376 12.4852 13.9789V4.35739C12.4852 4.01928 12.7084 3.72171 13.0329 3.62703L13.033 3.62703L22.6211 0.830451L22.6212 0.830414C22.7603 0.789943 22.908 0.789943 23.0471 0.830414L23.0472 0.830451L32.6353 3.62703L32.5793 3.81903L32.6353 3.62703C32.9599 3.72173 33.183 4.01934 33.183 4.35739V13.9789C33.183 17.1375 31.3417 19.7514 29.8202 21.3744C27.9384 23.3818 25.4857 25.0133 23.0847 25.85M15.9938 21.2377L23.0847 25.85M16.9579 20.3338L16.812 20.4706L16.9579 20.3338C15.5975 18.8827 14.0065 16.617 14.0065 13.9789V4.92787L22.8341 2.35316L31.6617 4.92787L31.6616 13.9789C31.6616 16.617 30.0708 18.8827 28.7104 20.3338C27.0804 22.0724 24.8987 23.5492 22.8342 24.3228C20.7694 23.5492 18.5877 22.0725 16.9579 20.3338Z" fill="#293948" stroke="#293948" stroke-width="0.4"/>
<path d="M22.5837 22.5097L22.5839 22.5097C22.6649 22.5379 22.7494 22.552 22.834 22.552C22.9186 22.552 23.0033 22.5379 23.0843 22.5097L23.0844 22.5097C24.8377 21.8986 26.6261 20.7092 27.9974 19.2464L27.9974 19.2464C29.1107 18.0585 30.4653 16.1363 30.4653 13.7995V6.90478C30.4653 6.56662 30.242 6.26919 29.9175 6.17452L29.9175 6.17452L23.0471 4.17064C23.0471 4.17063 23.0471 4.17062 23.047 4.17061C22.908 4.12999 22.7601 4.12999 22.621 4.17061C22.621 4.17062 22.621 4.17063 22.6209 4.17064L15.7503 6.17452L15.7503 6.17453C15.4259 6.2692 15.2026 6.56664 15.2026 6.90478V13.7995C15.2026 16.1363 16.5571 18.0586 17.6706 19.2464C19.0419 20.7093 20.8303 21.8986 22.5837 22.5097ZM18.7807 18.2058L18.6348 18.3426L18.7807 18.2058C17.4421 16.7779 16.7241 15.211 16.7241 13.7995V7.47536L22.8342 5.69332L28.9441 7.47536V13.7995C28.9441 15.211 28.2261 16.7778 26.8875 18.2058C25.761 19.4075 24.2605 20.4309 22.8341 20.981C21.4077 20.4309 19.9072 19.4075 18.7807 18.2058Z" fill="#293948" stroke="#293948" stroke-width="0.4"/>
<path d="M21.0071 14.9939L19.7516 13.7383L19.7516 13.7383C19.4545 13.4412 18.9728 13.4412 18.6757 13.7383C18.3787 14.0353 18.3787 14.5169 18.6757 14.814L18.6757 14.8141L20.4692 16.6075C20.6177 16.7561 20.8127 16.8304 21.0071 16.8304C21.2015 16.8304 21.3965 16.756 21.545 16.6075C21.545 16.6075 21.545 16.6074 21.545 16.6074L26.9922 11.1604L26.8516 11.0198L26.9922 11.1604C27.2893 10.8634 27.2893 10.3818 26.9922 10.0847C26.6952 9.78769 26.2136 9.78754 25.9164 10.0847L26.0573 10.2256L21.0071 14.9939Z" fill="#293948" stroke="#293948" stroke-width="0.4"/>
</g>
</g>
<defs>
<filter id="filter0_f_0_1" x="-1081" y="-1061" width="1428" height="1189" filterUnits="userSpaceOnUse" color-interpolation-filters="sRGB">
<feFlood flood-opacity="0" result="BackgroundImageFix"/>
<feBlend mode="normal" in="SourceGraphic" in2="BackgroundImageFix" result="shape"/>
<feGaussianBlur stdDeviation="137" result="effect1_foregroundBlur_0_1"/>
</filter>
<clipPath id="clip0_0_1">
<rect width="1640" height="4774" fill="white" transform="translate(-1187 -1070)"/>
</clipPath>
</defs>
</svg>
