<svg width="34" height="37" viewBox="0 0 34 37" fill="none" xmlns="http://www.w3.org/2000/svg">
<g opacity="0.8">
<path d="M15.5939 23.5113C15.2359 23.7806 14.7273 23.7757 14.3727 23.4722L14.3725 23.472L10.5087 20.1525L15.5939 23.5113ZM15.5939 23.5113L15.6066 23.5241L15.7303 23.3881L23.4264 14.9263L23.4264 14.9263C23.7893 14.527 23.7602 13.9092 23.3615 13.5461L23.3614 13.546C22.9621 13.1832 22.3442 13.2123 21.9809 13.6113L21.9809 13.6113L14.9233 21.3707L11.7785 18.6689L11.7782 18.6686C11.3687 18.3185 10.7524 18.366 10.4016 18.7758L10.4015 18.776C10.0514 19.1857 10.0992 19.8017 10.5085 20.1523L15.5939 23.5113ZM16.9623 0.852193L16.8584 0.786331L16.7612 0.861803C11.6612 4.82386 6.40189 5.98338 1.03259 5.7024L0.853218 5.69301L0.848506 5.87257C0.622542 14.4823 2.03222 21.1092 4.80066 26.0595C7.57121 31.0136 11.6953 34.2755 16.8701 36.1644L16.9311 36.1866L16.9918 36.1638C22.3489 34.1462 26.5453 30.7168 29.2985 25.7422C32.0501 20.7706 33.3531 14.2688 32.95 6.11518L32.941 5.93293L32.7593 5.94955C28.2105 6.36548 22.8856 4.60685 16.9623 0.852193ZM3.01971 7.50995C7.74338 7.72577 12.3863 6.68142 16.8849 3.22287C22.0379 6.47059 26.7273 8.04766 30.789 7.73446C31.1156 14.825 29.9663 20.4553 27.589 24.7507C25.2035 29.0609 21.5747 32.04 16.9289 33.8035C12.4442 32.1528 8.88039 29.3211 6.48073 25.0304C4.08712 20.7506 2.84467 15.0063 3.01971 7.50995Z" fill="#293948" stroke="#293948" stroke-width="0.35"/>
</g>
</svg>
